<svg width="38" height="38" viewBox="0 0 38 38" fill="none" xmlns="http://www.w3.org/2000/svg">
<path fill-rule="evenodd" clip-rule="evenodd" d="M10.8292 22.8697C8.01159 20.7851 6.18164 17.4169 6.18164 13.6165C6.18164 7.28827 11.2557 2.1582 17.515 2.1582C23.7742 2.1582 28.8483 7.28827 28.8483 13.6165C28.8483 17.1706 27.2479 20.3467 24.736 22.4484L26.3328 34.6164C26.4108 35.2111 26.1451 35.7985 25.6491 36.1279C25.1532 36.4573 24.5144 36.4704 24.0056 36.1617L17.8094 32.403L11.6132 36.1617C11.1043 36.4704 10.4655 36.4573 9.96953 36.1278C9.47353 35.7984 9.20791 35.211 9.28604 34.6162L10.8292 22.8697ZM9.27255 13.6165C9.27255 9.01416 12.9628 5.2832 17.515 5.2832C22.0671 5.2832 25.7574 9.01416 25.7574 13.6165C25.7574 18.2189 22.0671 21.9499 17.515 21.9499C16.1681 21.9499 14.8966 21.6232 13.7739 21.044C13.5354 20.7015 13.1621 20.4563 12.7196 20.3951C10.6325 18.8832 9.27255 16.4104 9.27255 13.6165ZM13.7429 24.4249L12.7722 31.8143L17.0143 29.241C17.5037 28.9441 18.1151 28.9441 18.6045 29.241L22.8471 31.8146L21.8488 24.2073C20.5137 24.7663 19.05 25.0749 17.515 25.0749C16.1925 25.0749 14.9229 24.8459 13.7429 24.4249Z" fill="#FCA13B"/>
</svg>
