<svg width="38" height="38" viewBox="0 0 38 38" fill="none" xmlns="http://www.w3.org/2000/svg">
<path fill-rule="evenodd" clip-rule="evenodd" d="M18.5458 9.375C15.1317 9.375 12.364 12.1732 12.364 15.625C12.364 19.0768 15.1317 21.875 18.5458 21.875C21.9599 21.875 24.7276 19.0768 24.7276 15.625C24.7276 12.1732 21.9599 9.375 18.5458 9.375ZM15.4549 15.625C15.4549 13.8991 16.8387 12.5 18.5458 12.5C20.2529 12.5 21.6367 13.8991 21.6367 15.625C21.6367 17.3509 20.2529 18.75 18.5458 18.75C16.8387 18.75 15.4549 17.3509 15.4549 15.625Z" fill="#FCA13B"/>
<path fill-rule="evenodd" clip-rule="evenodd" d="M17.6178 35.6245C17.6182 35.6247 17.6185 35.625 18.5458 34.375L17.6178 35.6245C18.1673 36.0411 18.9236 36.0417 19.4731 35.625L18.5458 34.375C19.4731 35.625 19.4727 35.6253 19.4731 35.625L19.4748 35.6237L19.4777 35.6215L19.4867 35.6146L19.518 35.5906C19.5447 35.57 19.5827 35.5406 19.6314 35.5024C19.7287 35.4262 19.8686 35.3152 20.0451 35.1718C20.398 34.8852 20.8976 34.4683 21.4953 33.9396C22.6885 32.8841 24.2832 31.373 25.8827 29.5537C29.0093 25.9975 32.4549 20.9297 32.4549 15.625C32.4549 11.8954 30.9895 8.31854 28.381 5.68131C25.7726 3.04408 22.2347 1.5625 18.5458 1.5625C14.8569 1.5625 11.3191 3.04408 8.7106 5.68131C6.10214 8.31854 4.63672 11.8954 4.63672 15.625C4.63672 20.9297 8.08235 25.9975 11.2089 29.5537C12.8084 31.373 14.4032 32.8841 15.5963 33.9396C16.194 34.4683 16.6937 34.8852 17.0465 35.1718C17.223 35.3152 17.3629 35.4262 17.4603 35.5024C17.5089 35.5406 17.547 35.57 17.5736 35.5906L17.6049 35.6146L17.614 35.6215L17.6178 35.6245ZM10.8962 7.89102C12.925 5.83984 15.6766 4.6875 18.5458 4.6875C21.415 4.6875 24.1666 5.83984 26.1954 7.89102C28.2242 9.9422 29.364 12.7242 29.364 15.625C29.364 19.6953 26.6278 24.0025 23.5725 27.4776C22.0812 29.1739 20.585 30.5925 19.4599 31.5878C19.1158 31.8922 18.8074 32.1561 18.5458 32.3753C18.2842 32.1561 17.9758 31.8922 17.6317 31.5878C16.5066 30.5925 15.0105 29.1739 13.5191 27.4776C10.4638 24.0025 7.72763 19.6953 7.72763 15.625C7.72763 12.7242 8.8674 9.9422 10.8962 7.89102Z" fill="#FCA13B"/>
</svg>
