<svg width="38" height="38" viewBox="0 0 38 38" fill="none" xmlns="http://www.w3.org/2000/svg">
<path fill-rule="evenodd" clip-rule="evenodd" d="M18.5457 2.82031C13.7017 2.82031 9.77477 6.79051 9.77477 11.688C9.77477 16.5855 13.7017 20.5557 18.5457 20.5557C23.3898 20.5557 27.3167 16.5855 27.3167 11.688C27.3167 6.79051 23.3898 2.82031 18.5457 2.82031ZM12.8657 11.688C12.8657 8.5164 15.4087 5.94531 18.5457 5.94531C21.6827 5.94531 24.2258 8.5164 24.2258 11.688C24.2258 14.8596 21.6827 17.4307 18.5457 17.4307C15.4087 17.4307 12.8657 14.8596 12.8657 11.688Z" fill="#FCA13B"/>
<path d="M8.96548 25.6445C9.47548 25.1895 10.1323 24.9385 10.8125 24.9388H26.28C26.9597 24.9391 27.6159 25.1903 28.1254 25.6451C28.6351 26.1001 28.9628 26.7279 29.0471 27.4099L29.6122 31.9742C29.7182 32.8305 30.4907 33.4378 31.3376 33.3306C32.1845 33.2234 32.7852 32.4424 32.6792 31.5861L32.1142 27.0221C31.9365 25.5844 31.2456 24.2618 30.1714 23.3027C29.0972 22.3437 27.7131 21.8142 26.28 21.8138H10.8132C9.37958 21.8134 7.99521 22.3424 6.92031 23.3014C5.84528 24.2606 5.15383 25.5839 4.97605 27.0223L4.41246 31.5866C4.30672 32.4429 4.9076 33.2237 5.75456 33.3306C6.60152 33.4375 7.37382 32.83 7.47956 31.9737L8.04315 27.4095C8.12753 26.7271 8.45552 26.0995 8.96548 25.6445Z" fill="#FCA13B"/>
</svg>
