<svg width="60" height="60" viewBox="0 0 60 60" fill="none" xmlns="http://www.w3.org/2000/svg">
<path d="M10 52.5C8.625 52.5 7.44792 52.0104 6.46875 51.0312C5.48958 50.0521 5 48.875 5 47.5V37.5H22.5V42.5H37.5V37.5H55V47.5C55 48.875 54.5104 50.0521 53.5312 51.0312C52.5521 52.0104 51.375 52.5 50 52.5H10ZM27.5 37.5V32.5H32.5V37.5H27.5ZM5 32.5V20C5 18.625 5.48958 17.4479 6.46875 16.4688C7.44792 15.4896 8.625 15 10 15H20V10C20 8.625 20.4896 7.44792 21.4688 6.46875C22.4479 5.48958 23.625 5 25 5H35C36.375 5 37.5521 5.48958 38.5312 6.46875C39.5104 7.44792 40 8.625 40 10V15H50C51.375 15 52.5521 15.4896 53.5312 16.4688C54.5104 17.4479 55 18.625 55 20V32.5H37.5V27.5H22.5V32.5H5ZM25 15H35V10H25V15Z" fill="#1A7D9C"/>
</svg>
