<svg width="60" height="60" viewBox="0 0 60 60" fill="none" xmlns="http://www.w3.org/2000/svg">
<path d="M26.7193 2.05078C21.9732 2.82422 18.0474 4.76953 14.6607 8.02734C11.0865 11.4727 8.87161 15.7852 8.15677 20.7539C7.91067 22.3711 7.91067 25.4297 8.14505 27.0586C9.43411 35.8945 15.8443 43.043 24.4927 45.2812C26.5083 45.7969 27.2232 45.8789 30.0591 45.8789C32.9185 45.8789 33.645 45.7852 35.9185 45.1758C43.3365 43.1719 49.3482 37.1133 51.3169 29.6484C52.2661 26.0391 52.2896 21.9961 51.3755 18.375C49.5825 11.25 44.0865 5.32031 37.1138 2.98828C34.6529 2.16797 33.4341 1.96875 30.4107 1.92188C28.5122 1.89844 27.4224 1.93359 26.7193 2.05078ZM33.5279 7.35938C36.7271 8.10938 39.3521 9.51562 41.6255 11.707C43.0904 13.1016 44.0865 14.4375 44.9888 16.1719C46.395 18.9141 46.9458 21.3281 46.8404 24.4336C46.77 26.5078 46.5474 27.7383 45.938 29.4727C45.0943 31.8398 43.9107 33.7617 42.1294 35.6133C40.2544 37.5703 37.9341 39.0469 35.356 39.9023C33.2818 40.5938 32.4146 40.7227 30.0005 40.7227C27.5865 40.7227 26.7193 40.5938 24.645 39.9023C22.0669 39.0469 19.7466 37.5703 17.8716 35.6133C15.9849 33.6445 14.813 31.6875 13.9458 29.0742C13.2896 27.082 13.0786 25.5586 13.1607 23.2617C13.2661 20.4727 13.7466 18.6211 15.0122 16.1602C15.9029 14.4375 16.9107 13.1133 18.3638 11.7188C21.0474 9.14062 23.6138 7.89844 27.8911 7.10156C28.0552 7.07812 29.1568 7.06641 30.3521 7.08984C32.0044 7.11328 32.7544 7.18359 33.5279 7.35938Z" fill="#1F8554"/>
<path d="M27.3164 8.74219C24.2578 9.25781 21.4688 10.7227 19.1484 13.0547C16.1367 16.0664 14.6484 19.6523 14.6484 23.9062C14.6484 26.4141 15.1992 28.7227 16.3008 30.9023C17.0273 32.3438 17.7539 33.3516 18.9141 34.5469C21.0586 36.7617 23.3906 38.1094 26.4727 38.8828C27.6094 39.1641 27.9141 39.1992 30 39.1992C32.0859 39.1992 32.3906 39.1641 33.5391 38.8828C36.6211 38.0977 39.082 36.6797 41.2031 34.4414C43.9219 31.5586 45.3516 27.9375 45.3516 23.9062C45.3516 19.5938 43.7695 15.8555 40.6523 12.832C38.4023 10.6406 35.6016 9.22266 32.5781 8.73047C31.207 8.51953 28.6641 8.51953 27.3164 8.74219ZM31.3828 17.8594L32.6953 21.1758L33.668 21.2461C34.1953 21.2812 35.7656 21.3867 37.1484 21.457C38.5312 21.5391 39.7383 21.6328 39.8086 21.668C39.9023 21.7148 38.9062 22.6172 37.207 24.0117C35.6484 25.2891 34.4531 26.3555 34.4531 26.4727C34.4531 26.5781 34.8398 28.1602 35.3203 30C35.8008 31.8398 36.1758 33.3516 36.1523 33.375C36.1289 33.3984 34.7344 32.543 33.0586 31.4766L30 29.5312L26.9414 31.4766C25.2656 32.543 23.8711 33.3984 23.8477 33.375C23.8242 33.3516 24.1992 31.8398 24.6797 30C25.1602 28.1602 25.5469 26.5781 25.5469 26.4727C25.5469 26.3555 24.3633 25.3008 22.793 24.0117C20.6484 22.2422 20.0742 21.7266 20.2383 21.668C20.3555 21.6211 21.9844 21.4922 23.8477 21.3867C25.7227 21.2812 27.2812 21.1641 27.3164 21.1172C27.3516 21.0703 27.9492 19.5703 28.6523 17.7773C29.3555 15.9961 29.9531 14.5312 30 14.5312C30.0469 14.5312 30.668 16.0312 31.3828 17.8594Z" fill="#1F8554"/>
<path d="M11.0274 46.0195C9.48055 48.7031 8.22664 50.918 8.23836 50.9297C8.25008 50.9414 10.2657 50.5547 12.7149 50.0625L17.1798 49.1602L18.6329 53.4609C19.4415 55.8398 20.1212 57.7734 20.1563 57.7734C20.2384 57.7617 26.2501 47.2969 26.2032 47.25C26.1798 47.2383 25.6056 47.0859 24.9259 46.9336C21.2579 46.1016 17.8126 44.4141 14.8595 41.9766L13.8516 41.1328L11.0274 46.0195Z" fill="#1F8554"/>
<path d="M45.0589 42.0352C42.1526 44.4258 38.719 46.1133 35.1096 46.9336C34.4182 47.0859 33.8206 47.2266 33.7971 47.25C33.7503 47.3086 39.9964 58.125 40.0901 58.125C40.1253 58.125 40.8049 56.2148 41.6018 53.8711C42.387 51.5391 43.0549 49.6172 43.0667 49.5938C43.0784 49.582 45.0589 49.9688 47.4495 50.4492C49.8518 50.9414 51.8557 51.3281 51.9143 51.3047C51.9846 51.2813 46.3596 41.3906 46.1721 41.2148C46.137 41.1797 45.6448 41.5547 45.0589 42.0352Z" fill="#1F8554"/>
</svg>
