<svg width="60" height="60" viewBox="0 0 60 60" fill="none" xmlns="http://www.w3.org/2000/svg">
<path d="M28.0078 4.64062C26.5078 4.96875 24.4336 6.1875 23.5312 7.28906C23.0039 7.93359 22.2891 9.04688 22.0781 9.5625L21.9141 9.96094H30H38.0977L37.5938 8.98828C37.2188 8.26172 36.8438 7.76953 36.0352 6.96094C35.1445 6.04688 34.8164 5.8125 33.8672 5.34375C33.2578 5.05078 32.3906 4.72266 31.9336 4.62891C30.9141 4.41797 29.0156 4.41797 28.0078 4.64062Z" fill="#C73F3F"/>
<path d="M22.641 11.3672C22.6644 11.4258 23.2738 12.1172 24.0004 12.8906L25.3246 14.2969H30.0004H34.6761L36.0004 12.8906C36.7269 12.1172 37.348 11.4258 37.3597 11.3672C37.3949 11.2852 34.8285 11.25 30.0004 11.25C25.1722 11.25 22.6058 11.2852 22.641 11.3672Z" fill="#C73F3F"/>
<path d="M21.4108 12.4459C21.2584 13.5826 21.6686 15.692 22.2897 16.9342C22.9694 18.2819 24.2467 19.6529 25.5241 20.4381C27.2233 21.4694 29.7545 21.9147 31.5944 21.5279C35.6256 20.6725 38.2975 17.5904 38.6139 13.4537C38.7545 11.7194 38.7077 11.7194 37.0319 13.4889C36.2233 14.3444 35.4967 15.1295 35.4147 15.2584C35.2741 15.4576 34.9694 15.4694 30.0827 15.4694L24.903 15.4811L23.192 13.6998L21.4811 11.9186L21.4108 12.4459Z" fill="#C73F3F"/>
<path d="M20.1096 14.7307C19.7464 15.8674 19.2307 19.4768 19.3714 19.8401C19.4534 20.0627 21.1995 20.6252 22.8987 20.9768C24.4925 21.3049 24.6331 21.2932 24.0706 20.8713C22.4065 19.6526 21.0823 17.6721 20.4964 15.4924C20.2151 14.4612 20.2034 14.4377 20.1096 14.7307Z" fill="#C73F3F"/>
<path d="M39.6685 14.8242C39.1177 17.3672 37.7818 19.4883 35.8131 20.9531C35.5084 21.1875 35.4966 21.2109 35.731 21.2109C36.1881 21.2109 38.6021 20.6484 39.6099 20.3203L40.606 19.9805L40.5826 19.043C40.5591 18.0938 40.0435 15 39.8443 14.6602C39.7623 14.5078 39.7271 14.543 39.6685 14.8242Z" fill="#C73F3F"/>
<path d="M21.9258 26.4961C20.0977 26.707 18.2109 27.4219 16.8047 28.418C13.4297 30.832 8.29688 36.2344 7.14844 38.6016C6.65625 39.6211 6.44531 40.5586 6.44531 41.7773C6.44531 43.8281 6.92578 44.9531 8.78906 47.3438C11.8594 51.2695 14.7656 54.832 15.082 55.043C15.6094 55.418 16.2539 55.582 17.0625 55.5234C17.9766 55.4648 18.6328 55.0547 19.1602 54.1992C19.4648 53.707 19.5117 53.5195 19.5117 52.8047C19.5117 52.2188 19.4414 51.8555 19.2891 51.5625C19.1602 51.3398 17.918 49.2773 16.5 46.9805C15.0938 44.6836 13.9453 42.6914 13.9453 42.5625C13.9453 41.9531 16.3828 39.2109 17.7305 38.3203C18.5156 37.793 18.6211 37.7695 18.9727 38.0508C19.2188 38.2617 19.4062 39.3633 21.5742 53.5547C21.7031 54.4219 21.8438 55.2305 21.8672 55.3359C21.9258 55.5352 22.418 55.5469 30.0352 55.5469H38.1445L39.4688 46.8984C41.0273 36.7383 40.8281 37.3711 42.2695 38.3555C43.8047 39.4102 46.0547 41.9414 46.0547 42.6328C46.0547 42.75 44.8477 44.8242 43.3594 47.2266C40.4297 52.0078 40.2773 52.3359 40.5352 53.3906C40.875 54.7383 41.918 55.5469 43.3125 55.5469C44.3789 55.5469 45.0234 55.1602 46.0195 53.9062C48.7383 50.5312 52.2539 46.043 52.5352 45.5977C53.8125 43.6406 53.9414 40.7109 52.8398 38.543C51.7031 36.2695 45.8555 30.1875 42.9844 28.2773C41.3203 27.1758 39.3047 26.543 37.0898 26.4141L35.918 26.3438L33.2578 29.6836L30.5859 33.0117V33.7266V34.4531H31.5C32.1328 34.4531 32.4844 34.5117 32.6719 34.6406L32.9297 34.8164V38.9062C32.9297 42.4688 32.9062 43.0195 32.7422 43.1719C32.5898 43.3359 32.168 43.3594 29.9531 43.3594C28.0898 43.3594 27.3164 43.3242 27.2109 43.2188C27.1055 43.1133 27.0703 42 27.0703 38.9531V34.8164L27.3281 34.6406C27.5156 34.5117 27.8672 34.4531 28.5117 34.4531H29.4258L29.3906 33.6914L29.3555 32.9414L26.7188 29.6602L24.082 26.3789L23.4375 26.3906C23.0859 26.3906 22.4062 26.4375 21.9258 26.4961Z" fill="#C73F3F"/>
<path d="M25.6877 26.4609C25.7697 26.6719 29.9182 31.7578 30.0002 31.7578C30.0822 31.7578 34.219 26.6719 34.3127 26.4609C34.3361 26.4023 32.3908 26.3672 30.0002 26.3672C27.6096 26.3672 25.6643 26.4141 25.6877 26.4609Z" fill="#C73F3F"/>
<path d="M28.2422 38.9648V42.1875H30H31.7578V38.9648V35.7422H30H28.2422V38.9648Z" fill="#C73F3F"/>
</svg>
