<svg width="60" height="60" viewBox="0 0 60 60" fill="none" xmlns="http://www.w3.org/2000/svg">
<path d="M49.9124 5.1383C49.8434 5.17283 49.7052 5.6304 49.593 6.1484C49.1009 8.46213 48.4275 9.6708 47.2879 10.232C47.003 10.3787 46.5713 10.5255 46.3382 10.5514C46.0274 10.5946 45.8807 10.6636 45.7857 10.8104C45.613 11.0608 45.7512 11.337 46.0792 11.4147C46.7872 11.5701 47.0375 11.6565 47.4174 11.8637C48.4793 12.4335 49.1527 13.7026 49.6275 16.0163C49.7916 16.8365 49.8779 16.9746 50.2146 16.9746C50.465 16.9746 50.534 16.8278 50.7153 15.9386C50.9312 14.8508 51.3197 13.7198 51.665 13.1328C52.2003 12.2263 53.055 11.6133 53.9529 11.4838C54.868 11.3543 54.8766 10.6895 53.9615 10.5514C53.3831 10.4651 52.6578 10.0766 52.2089 9.619C51.5614 8.95423 51.0089 7.60743 50.6722 5.88076C50.6117 5.59586 50.534 5.2937 50.4909 5.20736C50.4045 5.05196 50.1024 5.01743 49.9124 5.1383Z" fill="#1F8554"/>
<path d="M22.1832 7.25267C22.1314 7.32173 22.0278 7.6239 21.9587 7.91743C21.786 8.65127 21.5357 9.0743 21.1558 9.24697C20.9831 9.3333 20.75 9.44553 20.6292 9.49733C20.5083 9.54913 20.4047 9.67 20.3874 9.75633C20.3443 9.96353 20.6119 10.2398 20.8536 10.2398C21.3285 10.2398 21.8119 10.9305 22.0105 11.8974C22.0968 12.3291 22.14 12.4068 22.3299 12.4499C22.6753 12.5363 22.8134 12.3895 22.9602 11.7852C23.2278 10.7578 23.6077 10.2398 24.1343 10.2398C24.376 10.2398 24.5142 10.0758 24.5142 9.79087C24.5142 9.5405 24.5055 9.53187 23.8408 9.2815C23.4609 9.14337 23.176 8.69443 22.9947 7.95197C22.917 7.61527 22.8134 7.29583 22.7616 7.2354C22.6494 7.09726 22.3127 7.1059 22.1832 7.25267Z" fill="#1F8554"/>
<path d="M32.9905 10.3689C28.4753 11.189 25.1428 14.8151 24.6852 19.408C24.3485 22.7664 25.8594 26.2888 28.5098 28.3176C30.3746 29.7421 32.4121 30.4414 34.7345 30.4414C37.4712 30.4414 39.7763 29.5349 41.7188 27.6874C45.7592 23.8455 45.9578 17.5259 42.1678 13.451C40.6397 11.8106 38.6972 10.7574 36.4784 10.3689C35.5633 10.2135 33.8711 10.2135 32.9905 10.3689ZM36.8151 13.1315C41.5375 14.5129 43.6786 19.8051 41.2526 24.1132C40.7951 24.9161 39.4828 26.2801 38.7403 26.7118C37.0223 27.7219 35.1748 28.0759 33.3877 27.7305C28.0522 26.7032 25.5227 20.5994 28.5702 16.1101C29.6235 14.5561 31.3502 13.4078 33.2323 12.9934C34.2769 12.7603 35.7532 12.8208 36.8151 13.1315Z" fill="#1F8554"/>
<path d="M33.5864 14.3069C30.6683 14.8767 28.6309 17.3631 28.6309 20.3416C28.6309 21.4122 28.7863 22.0856 29.2525 23.0611C30.0295 24.7015 31.6094 25.9533 33.3792 26.3504C34.3461 26.5663 35.8138 26.4886 36.7289 26.1778C38.6196 25.5303 40.0614 24.0367 40.6744 22.0683C40.8384 21.5244 40.8729 21.2481 40.8643 20.2985C40.8557 19.3315 40.8298 19.0812 40.6312 18.4855C40.3031 17.5013 39.8542 16.7761 39.0599 15.9818C38.4901 15.4034 38.2225 15.2134 37.5491 14.8854C37.1002 14.6609 36.4527 14.4192 36.1073 14.3501C35.4426 14.2033 34.2166 14.1861 33.5864 14.3069ZM35.1749 15.4379C35.3131 15.5674 35.4167 15.766 35.4598 16.0163C35.5116 16.353 35.5548 16.4135 35.7965 16.4739C36.5735 16.6725 37.3937 17.5962 37.5146 18.4164C37.6009 18.9862 37.2987 19.392 36.8066 19.392C36.5735 19.392 36.1678 18.9085 36.1678 18.6322C36.1678 18.0711 35.2526 17.5703 34.4584 17.7085C33.7936 17.8207 33.2497 18.3214 33.3533 18.7358C33.4224 19.0121 33.785 19.2279 35.0627 19.7459C36.7462 20.428 37.411 20.9805 37.5232 21.7834C37.6527 22.7331 36.8239 23.9158 35.8138 24.218C35.5289 24.3043 35.4944 24.3475 35.4512 24.6669C35.3562 25.3662 34.7519 25.6598 34.3116 25.2195C34.1562 25.0727 34.0958 24.9173 34.0958 24.6756C34.0958 24.3648 34.0785 24.3302 33.7677 24.2439C32.9303 23.9935 32.2051 23.2338 32.0324 22.4136C31.8943 21.792 32.0583 21.4553 32.5504 21.3345C32.8353 21.2654 33.3188 21.6453 33.3188 21.9388C33.3188 22.4913 33.785 22.9057 34.5015 22.9834C35.3476 23.087 36.1678 22.6381 36.1678 22.0769C36.1678 21.723 35.8397 21.5071 34.4411 20.946C32.6281 20.2121 31.9806 19.6078 31.9979 18.6581C32.0065 17.7775 32.7662 16.802 33.6641 16.4998C34.0871 16.3617 34.0958 16.3444 34.0958 16.0163C34.0958 15.3602 34.7087 15.0321 35.1749 15.4379Z" fill="#1F8554"/>
<path d="M21.431 24.244C21.3792 24.3045 21.2755 24.6671 21.1892 25.0469C20.9734 26.0311 20.6626 26.765 20.2827 27.1448C19.9892 27.4556 19.7129 27.5938 18.9445 27.8269C18.7201 27.8873 18.6855 27.9391 18.6855 28.1981C18.6855 28.4571 18.7201 28.5089 18.9445 28.5693C19.7129 28.8024 19.9892 28.9406 20.2827 29.2514C20.6626 29.6312 20.9734 30.3651 21.1892 31.3493C21.3705 32.1694 21.4396 32.273 21.7849 32.2385C22.0439 32.2126 22.0526 32.1953 22.2857 31.2888C22.5619 30.1751 22.7605 29.7176 23.1231 29.3032C23.4339 28.9492 24.021 28.6298 24.3663 28.6298C24.5131 28.6298 24.6426 28.5521 24.7375 28.4139C24.867 28.2154 24.867 28.1808 24.7375 27.9823C24.6426 27.8441 24.5131 27.7664 24.3577 27.7664C23.7533 27.7578 23.0195 27.1621 22.6828 26.4024C22.5878 26.1952 22.4065 25.6167 22.2857 25.1074C22.0526 24.2009 22.0439 24.1836 21.7849 24.1577C21.6382 24.1404 21.4828 24.1836 21.431 24.244Z" fill="#1F8554"/>
<path d="M21.3192 35.1129C19.2904 35.3633 17.6846 36.1489 15.8975 37.772C15.1895 38.4108 14.4643 39.0411 14.119 39.3087L13.8945 39.49L16.2083 44.2643L18.5134 49.0385L19.2645 49.1421C19.6702 49.2025 20.1537 49.3148 20.335 49.3925C20.5249 49.4702 22.5883 50.5234 24.9193 51.7321C27.2589 52.9494 29.3655 54.0113 29.6072 54.1063C30.2029 54.3307 31.403 54.5293 32.1972 54.5293C33.4059 54.5293 34.9685 54.1753 35.9527 53.6832C36.4362 53.4415 53.9964 42.2872 54.4799 41.916C55.4641 41.1476 55.6195 39.395 54.782 38.4195C54.1518 37.677 52.9863 37.3317 52.1143 37.6338C51.9071 37.7029 48.2207 39.654 43.9299 41.9764C34.0879 47.2859 35.0549 46.7938 34.3124 46.7938C33.7167 46.7938 33.6304 46.7593 29.6936 45.0758C27.4834 44.1261 25.5927 43.2714 25.4891 43.1592C25.3769 43.0556 25.2905 42.8657 25.2905 42.7448C25.2905 42.4426 25.6531 42.0973 25.9553 42.0973C26.0934 42.0973 27.9237 42.8397 30.0389 43.7463C34.3124 45.5852 34.3556 45.6024 35.0635 45.1794C35.9096 44.6873 36.3585 43.8412 36.4103 42.6584C36.4448 41.9332 36.4276 41.8469 36.1945 41.4066C36.0391 41.1131 35.7887 40.8195 35.5383 40.6296C34.9254 40.1634 25.0402 35.4841 24.2545 35.2856C23.4516 35.087 22.1739 35.0093 21.3192 35.1129Z" fill="#1F8554"/>
<path d="M45.6564 36.3136C45.4837 36.3568 43.524 37.3151 41.3052 38.4374C37.9813 40.1209 37.2907 40.5008 37.3425 40.6216C37.731 41.4936 37.8259 41.9857 37.7828 42.849C37.7569 43.3411 37.7569 43.7383 37.7741 43.7383C37.8173 43.7383 48.7126 37.8676 48.7558 37.8244C48.9371 37.6518 48.1169 36.7884 47.5126 36.5122C47.0118 36.2877 46.1399 36.1927 45.6564 36.3136Z" fill="#1F8554"/>
<path d="M11.3645 39.4207C11.0883 39.5502 10.8465 39.6797 10.8206 39.697C10.7775 39.7488 15.0078 51.7923 15.1028 51.8873C15.2236 52.0081 17.5115 50.9031 17.6237 50.6786C17.7014 50.5232 17.2956 49.6253 15.0078 44.9115C13.5142 41.8122 12.2451 39.2912 12.1588 39.2394C11.9516 39.1358 11.943 39.1358 11.3645 39.4207Z" fill="#1F8554"/>
<path d="M6.77182 40.4656C5.68401 40.9836 4.74298 41.4584 4.68255 41.5102C4.62211 41.562 4.57031 41.7174 4.57031 41.8555C4.57031 42.1145 10.4928 54.512 10.7691 54.8055C10.8381 54.8919 11.0022 54.9609 11.123 54.9609C11.3475 54.9609 13.7389 53.994 13.9634 53.8213C14.0152 53.7695 14.067 53.6055 14.067 53.4587C14.067 53.053 9.42225 39.844 9.21505 39.654C9.12008 39.5763 8.97332 39.5073 8.89562 39.5073C8.81792 39.5073 7.86825 39.9389 6.77182 40.4656Z" fill="#1F8554"/>
</svg>
