<svg width="60" height="60" viewBox="0 0 60 60" fill="none" xmlns="http://www.w3.org/2000/svg">
<path d="M11.0843 5.2773C9.56839 5.66552 8.339 6.38652 7.30373 7.46801C5.76006 9.09487 5.03906 10.8696 5.03906 13.0049C5.03906 14.7704 5.41805 16.1292 6.30543 17.5157C6.72138 18.1535 6.89701 18.3107 6.89701 18.0334C6.89701 17.8023 7.68271 16.3695 8.0617 15.9073C8.40371 15.4821 9.1894 14.7796 9.66082 14.4654C9.87343 14.3359 9.87343 14.3175 9.73477 14.0956C9.45747 13.6704 9.20789 12.7368 9.20789 12.1267C9.20789 9.4831 11.8515 7.57893 14.3658 8.42934C16.575 9.16882 17.638 11.72 16.6304 13.8276L16.3901 14.3267L16.7044 14.567C17.296 15.0107 18.5901 16.3788 18.7934 16.7947C18.9043 17.0166 19.0985 17.4325 19.2186 17.7006L19.4405 18.209L19.7455 17.793C20.1615 17.2292 20.7068 16.046 20.9657 15.1679C21.1413 14.5393 21.1783 14.225 21.169 13.0881C21.1598 11.9141 21.132 11.6461 20.9194 10.9436C20.1522 8.41085 18.5254 6.58063 16.2052 5.6193C14.717 4.99999 12.6835 4.86134 11.0843 5.2773Z" fill="#1F8554"/>
<path d="M29.035 5.22082C28.24 5.59056 27.7871 6.33005 27.7871 7.26364C27.7871 7.56868 27.8518 7.97539 27.935 8.16951C28.0921 8.56698 28.5543 9.06613 28.9241 9.26024L29.1736 9.3989V10.5913V11.793H30.0056H30.8375V10.5913V9.3989L31.1055 9.26024C31.4383 9.08462 31.9282 8.52076 32.0946 8.13253C32.261 7.73506 32.261 6.79222 32.0946 6.39475C31.9097 5.95106 31.4013 5.40569 30.9761 5.22082C30.477 4.98974 29.5249 4.98974 29.035 5.22082Z" fill="#1F8554"/>
<path d="M41.8473 5.95109C40.6641 6.39478 40.091 7.90147 40.6641 9.03843L40.8767 9.45438L39.6474 11.5712C38.9818 12.7358 38.4272 13.7341 38.418 13.7988C38.418 13.9467 39.8137 14.6955 39.8877 14.5845C39.9154 14.5291 40.4885 13.5493 41.1448 12.4031L42.3465 10.3233L42.7162 10.314C43.9456 10.2863 44.9162 9.29724 44.9069 8.05861C44.9069 7.36535 44.7313 6.92166 44.2599 6.45024C43.6406 5.83092 42.6885 5.63681 41.8473 5.95109Z" fill="#1F8554"/>
<path d="M12.221 9.8987C12.0269 9.96341 11.6941 10.1853 11.4908 10.3794C10.2984 11.5256 10.5757 13.5129 12.0269 14.2709C12.4059 14.465 13.4412 14.5297 13.8849 14.3818C15.484 13.8642 16.0109 11.8398 14.8832 10.5088C14.3285 9.84324 13.1361 9.57518 12.221 9.8987Z" fill="#1F8554"/>
<path d="M28.9243 13.5767C27.5748 14.1683 26.2714 15.9153 25.3101 18.4481C24.9126 19.4926 24.4412 20.9623 24.4967 21.0085C24.5059 21.027 24.9958 21.1009 25.5782 21.1749C27.279 21.406 29.8209 21.4984 31.6974 21.406C33.2041 21.332 35.4317 21.0917 35.5242 20.9993C35.5427 20.9808 35.3578 20.3522 35.1082 19.5943C34.6183 18.106 33.9435 16.6271 33.3242 15.675C32.7511 14.7876 31.7251 13.8263 31.078 13.5675C30.3848 13.2994 29.5714 13.2994 28.9243 13.5767Z" fill="#1F8554"/>
<path d="M24.8749 14.1423C24.3665 14.3087 23.6362 14.586 23.248 14.7616C22.5363 15.0759 22.5363 15.0759 22.4346 15.5381C22.1665 16.7305 21.2791 18.4221 20.4287 19.3649C19.9943 19.8548 19.9758 19.9657 20.3178 20.0489C20.438 20.0767 20.8262 20.1876 21.1775 20.2893C21.538 20.4002 22.0833 20.5481 22.3976 20.6128L22.9799 20.7422L23.0724 20.4002C23.7194 18.0153 24.8841 15.4826 25.9194 14.2163C26.2337 13.8373 26.2337 13.828 26.0211 13.828C25.9009 13.8373 25.3833 13.9667 24.8749 14.1423Z" fill="#1F8554"/>
<path d="M34.0828 14.207C35.1273 15.4734 36.3012 18.0246 36.939 20.4094L37.0315 20.7422L37.5676 20.622C39.1667 20.243 42.1986 19.1523 42.3557 18.8935C42.4389 18.7641 41.0894 17.4977 40.0356 16.7028C38.2793 15.3809 35.7651 14.1793 34.1197 13.865L33.75 13.8003L34.0828 14.207Z" fill="#1F8554"/>
<path d="M50.9432 15.3247C50.7398 15.4264 50.4625 15.6205 50.3239 15.7499C50.0188 16.0364 49.6953 16.8406 49.6953 17.3213C49.6953 17.6448 49.6676 17.6818 49.0205 18.0423C48.1239 18.5414 45.4063 20.1221 45.3601 20.1591C45.3046 20.2238 46.1273 21.5918 46.2197 21.5918C46.2752 21.5918 47.2735 21.0372 48.4382 20.3624L50.555 19.133L50.9709 19.3456C51.8491 19.7893 53.1616 19.512 53.7255 18.7633C54.0028 18.4028 54.2246 17.728 54.2246 17.2566C54.2246 17.0717 54.1045 16.6742 53.9658 16.3692C53.5499 15.4911 52.9213 15.1213 51.8768 15.1213C51.4978 15.1306 51.1928 15.1953 50.9432 15.3247Z" fill="#1F8554"/>
<path d="M10.455 15.7408C9.36422 16.4525 8.43987 17.7743 8.18105 18.9852C8.06088 19.5676 8.0424 19.5399 8.99448 20.113C10.0575 20.76 11.2129 21.102 12.581 21.1944C14.3557 21.2961 16.112 20.8617 17.4615 19.9743C18.1548 19.5121 18.1918 19.4104 17.9515 18.6247C17.6372 17.5895 16.9809 16.6466 16.1397 16.0088C15.4095 15.4635 15.2339 15.4265 14.7255 15.6668C13.7919 16.1198 12.3869 16.1198 11.518 15.6761C11.0558 15.4357 10.9079 15.445 10.455 15.7408Z" fill="#1F8554"/>
<path d="M42.9934 20.2882C42.1522 20.7781 39.7859 21.6285 38.1868 22.0167C37.8355 22.0999 37.512 22.2016 37.4658 22.2386C37.4288 22.2663 37.475 22.7747 37.5767 23.3571C37.7893 24.6049 38.0111 26.6662 38.0943 28.1729L38.159 29.2637H42.4018H46.6446V28.9309C46.6446 27.8771 46.1732 25.6587 45.6278 24.152C45.1009 22.7193 43.6404 20.1033 43.3631 20.1218C43.3169 20.1218 43.1505 20.1958 42.9934 20.2882Z" fill="#1F8554"/>
<path d="M17.8965 21.4621C17.1293 21.9151 15.9831 22.3865 15.4192 22.4789C15.0588 22.5344 15.0403 22.5529 14.7537 23.2461C14.3655 24.1612 14.0512 25.0764 13.8294 25.936C13.6352 26.7217 13.3672 28.4318 13.3672 28.9309V29.2637H17.61H21.8527L21.9082 28.1729C22.0006 26.5923 22.2225 24.5587 22.4351 23.3571C22.5368 22.7747 22.583 22.2756 22.546 22.2386C22.509 22.2016 22.2225 22.1184 21.9174 22.0537C21.483 21.9613 20.078 21.5361 18.6915 21.0832C18.636 21.0647 18.2755 21.231 17.8965 21.4621Z" fill="#1F8554"/>
<path d="M24.0904 22.5991C24.0904 22.6453 24.0072 23.1722 23.9055 23.773C23.6744 25.1318 23.4434 27.4704 23.4434 28.4965V29.2637H30.0247H36.5969L36.5414 27.8494C36.4767 26.3797 36.2919 24.6789 36.0515 23.3478C35.9683 22.9134 35.8944 22.5529 35.8759 22.5344C35.8667 22.5251 35.423 22.5714 34.8961 22.6546C31.8919 23.0798 28.1206 23.0798 25.1257 22.6546C24.0072 22.4882 24.0904 22.4974 24.0904 22.5991Z" fill="#1F8554"/>
<path d="M6.29631 27.9608C5.51061 28.3306 5.02995 29.0978 5.03919 30.0129C5.03919 30.9188 5.51061 31.686 6.29631 32.0465C6.75849 32.2591 7.69208 32.2776 8.17275 32.0742C8.57022 31.9171 9.06937 31.4549 9.26348 31.0851L9.40214 30.8356H10.5946H11.7962V30.0036V29.1717H10.6038H9.41138L9.22651 28.8667C8.95845 28.4415 8.57022 28.0995 8.17275 27.9331C7.69208 27.7297 6.75849 27.7482 6.29631 27.9608Z" fill="#1F8554"/>
<path d="M51.8198 27.9331C51.4408 28.0995 50.9324 28.5617 50.7476 28.9129L50.6089 29.1717H49.4165H48.2148V30.0036V30.8356H49.4165H50.6089L50.7476 31.0851C50.9417 31.4549 51.4408 31.9171 51.8383 32.0742C52.3097 32.2776 53.2526 32.2591 53.7147 32.0465C54.1399 31.8616 54.6483 31.3162 54.8332 30.8725C54.9996 30.4751 54.9996 29.5322 54.8332 29.1348C54.6483 28.6911 54.1399 28.1457 53.7147 27.9608C53.2526 27.7482 52.2728 27.739 51.8198 27.9331Z" fill="#1F8554"/>
<path d="M13.3672 31.0855C13.3764 32.2409 13.8386 34.3854 14.4394 35.9845C14.9293 37.3156 16.3621 39.8945 16.6117 39.8945C16.6579 39.8945 16.9075 39.7929 17.1663 39.6634C18.3864 39.0441 19.7914 38.545 22.2687 37.8517C22.5922 37.7685 22.62 37.7315 22.5645 37.5189C22.3334 36.5761 21.8712 32.2779 21.8712 31.0023V30.7434H17.6192H13.3672V31.0855Z" fill="#1F8554"/>
<path d="M23.4715 32.148C23.5362 33.627 23.7118 35.3093 23.9614 36.6866L24.1093 37.5L24.4513 37.4538C27.705 36.9454 31.4209 36.9084 34.8503 37.3613C35.4049 37.4353 35.867 37.4815 35.8855 37.463C35.8948 37.4538 35.9965 36.9177 36.0981 36.2706C36.3477 34.8101 36.5695 32.6194 36.5695 31.5472V30.743H29.9882H23.416L23.4715 32.148Z" fill="#1F8554"/>
<path d="M38.1039 31.7773C38.0022 33.3764 37.8728 34.6335 37.6602 36.057C37.3736 37.9797 37.2812 37.7486 38.4643 38.0536C39.0282 38.1923 39.9156 38.4604 40.4425 38.636L41.413 38.9688L41.6903 38.7839C42.513 38.2662 44.3802 37.4898 44.8147 37.4898C45.0273 37.4898 45.8037 35.5579 46.1827 34.0697C46.3768 33.284 46.6449 31.5739 46.6449 31.0748V30.742H42.4021H38.1593L38.1039 31.7773Z" fill="#1F8554"/>
<path d="M13.4608 38.5633C13.3314 38.6372 12.3885 39.1918 11.3532 39.7927L9.47681 40.8834L9.05161 40.6616C8.51549 40.3935 7.67433 40.375 7.12896 40.6246C5.60378 41.3179 5.3542 43.4531 6.68527 44.4699C7.6466 45.2001 9.10707 45.0338 9.80958 44.1094C10.0961 43.7304 10.318 43.1111 10.318 42.6767L10.3272 42.3439L12.4902 41.1053C13.6826 40.4305 14.6624 39.8574 14.6624 39.8389C14.6624 39.7095 13.8675 38.4154 13.7935 38.4154C13.7381 38.4154 13.5902 38.4801 13.4608 38.5633Z" fill="#1F8554"/>
<path d="M28.1574 38.5637C27.5196 38.6007 25.2642 38.8503 24.7651 38.9335L24.4785 38.9889L24.6449 39.599C25.4953 42.6309 26.9096 45.1174 28.3331 46.0972C28.9431 46.5039 29.3499 46.6426 30.0061 46.6426C30.7179 46.6426 31.1154 46.4947 31.8179 45.9586C32.7977 45.2191 33.7867 43.7956 34.4985 42.104C34.8498 41.2536 35.5707 39.0536 35.5153 38.9982C35.4968 38.9797 34.822 38.878 34.0178 38.7856C32.5943 38.6007 29.4423 38.4898 28.1574 38.5637Z" fill="#1F8554"/>
<path d="M45.6742 38.8859C42.5684 39.3389 39.8693 41.7422 39.0558 44.7925C38.5105 46.8261 38.8617 49.2479 39.9617 51.0781C40.5625 52.0764 40.581 52.0857 40.8583 51.337C41.2003 50.3941 42.1709 49.1647 43.0768 48.5177C43.3356 48.3328 43.5667 48.1664 43.5852 48.1479C43.6037 48.1387 43.5112 47.8706 43.3726 47.5656C43.0213 46.7799 42.9012 46.0312 43.0306 45.3287C43.3079 43.748 44.4078 42.5186 45.8961 42.1119C46.4414 41.964 47.5137 41.9918 48.0498 42.1489C48.9557 42.4354 49.9262 43.2396 50.3514 44.0716C50.943 45.2362 50.943 46.706 50.3422 47.732L50.1388 48.074L50.4439 48.3051C51.017 48.7395 51.6825 49.3588 52.0338 49.7748C52.3573 50.1815 53.1152 51.5865 53.1152 51.8084C53.1152 52.2059 53.7253 51.3832 54.2245 50.3109C54.7421 49.211 54.8808 48.6009 54.9362 47.2421C54.9732 46.3362 54.9455 45.8648 54.8438 45.3287C53.9564 41.0489 49.9909 38.2574 45.6742 38.8859Z" fill="#1F8554"/>
<path d="M22.3338 39.395C20.596 39.8572 17.9431 40.8278 17.6658 41.1051C17.5456 41.2252 18.8767 42.4824 20.1153 43.416C21.3077 44.3126 23.3783 45.3941 24.8018 45.847C26.29 46.3184 26.3085 46.3184 25.7169 45.5235C24.7186 44.2017 23.7665 42.0572 23.027 39.4505C22.9993 39.3396 22.9438 39.2471 22.9069 39.2564C22.8699 39.2564 22.6111 39.3211 22.3338 39.395Z" fill="#1F8554"/>
<path d="M36.9855 39.4689C36.2553 42.0386 35.2847 44.2201 34.2957 45.5234C33.9074 46.0318 33.8335 46.1797 33.9629 46.1797C34.2864 46.1797 35.4418 45.8099 36.4401 45.3847L37.4569 44.9595L37.6141 44.3402C37.9561 43.0461 38.7048 41.6504 39.6384 40.5874C39.8418 40.3563 39.9804 40.1252 39.9342 40.0882C39.851 40.0143 38.2149 39.5428 37.4292 39.358C37.0687 39.2748 37.0317 39.284 36.9855 39.4689Z" fill="#1F8554"/>
<path d="M46.1722 43.6278C45.0907 44.0067 44.5176 44.8109 44.5176 45.9109C44.5176 47.4546 45.9503 48.5823 47.4663 48.2125C49.0284 47.8428 49.7679 45.9664 48.899 44.5983C48.3444 43.7202 47.1243 43.2858 46.1722 43.6278Z" fill="#1F8554"/>
<path d="M18.9133 47.5112L17.6654 49.6742L17.194 49.7112C14.957 49.9053 14.273 52.78 16.2049 53.917C16.5839 54.1388 16.7503 54.1758 17.3511 54.1758C17.9704 54.1758 18.0998 54.1388 18.5066 53.8985C19.1721 53.4825 19.5049 52.8909 19.5418 52.059C19.5696 51.5136 19.5418 51.3288 19.357 50.9775L19.1351 50.5523L20.3645 48.4356C21.03 47.2709 21.5846 46.2726 21.5939 46.2264C21.5939 46.1709 21.4368 46.0507 21.2519 45.949C21.0578 45.8474 20.7527 45.6717 20.5771 45.5608C20.4015 45.4407 20.2351 45.3482 20.2074 45.3482C20.1796 45.3482 19.5973 46.3188 18.9133 47.5112Z" fill="#1F8554"/>
<path d="M29.1747 49.4148V50.6072L28.9251 50.7459C28.5462 50.94 28.0932 51.4392 27.9268 51.8551C27.7327 52.3173 27.7327 53.1769 27.9268 53.6391C28.2781 54.471 29.0361 54.9609 30.0066 54.9609C30.7461 54.9609 31.236 54.7483 31.6612 54.2677C32.0864 53.7778 32.2251 53.3988 32.2251 52.7425C32.2251 52.4375 32.1696 52.0492 32.0957 51.8736C31.9293 51.4854 31.4394 50.9215 31.1066 50.7459L30.8385 50.6072V49.4148V48.2132H30.0066H29.1747V49.4148Z" fill="#1F8554"/>
<path d="M44.2863 49.5173C43.2695 50.1459 42.4376 51.1997 42.1141 52.2627C41.8275 53.1963 41.846 53.2887 42.4654 53.6769C43.4359 54.2962 44.3233 54.6567 45.4233 54.8693C46.2737 55.045 48.261 54.9433 49.1392 54.6845C49.8787 54.4626 51.2282 53.8156 51.6719 53.4551L51.9307 53.2425L51.7366 52.5122C51.3854 51.2459 50.4795 50.0442 49.4257 49.4711L48.9728 49.2308L48.4459 49.4711C47.6417 49.8409 46.5417 49.8871 45.6729 49.582C45.3216 49.4526 44.9611 49.3232 44.8872 49.2862C44.804 49.2493 44.5636 49.3417 44.2863 49.5173Z" fill="#1F8554"/>
</svg>
