<svg width="60" height="60" viewBox="0 0 60 60" fill="none" xmlns="http://www.w3.org/2000/svg">
<path d="M29.2626 5.16359C29.1171 5.31883 29.0977 5.64871 29.0977 7.83174V10.3253L29.3305 10.4708C29.6119 10.6551 30.0291 10.5775 30.1649 10.3253C30.2231 10.2185 30.2619 9.11246 30.2619 7.72502C30.2619 5.51287 30.2425 5.29942 30.0873 5.15388C29.8544 4.94043 29.4566 4.95014 29.2626 5.16359Z" fill="#C73F3F"/>
<path d="M40.5835 7.97902C40.4186 8.08574 38.1191 12.0928 38.1191 12.2675C38.1191 12.5488 38.4102 12.8496 38.6916 12.8496C39.07 12.8496 39.1864 12.7235 39.7879 11.6853C40.079 11.1808 40.5835 10.2979 40.9134 9.73515C41.515 8.7164 41.6411 8.26038 41.3985 8.01783C41.2724 7.89169 40.7485 7.86259 40.5835 7.97902Z" fill="#C73F3F"/>
<path d="M18.1305 8.22083C17.6357 8.46339 17.7327 8.77387 18.9649 10.9181C20.2068 13.0817 20.3912 13.334 20.7016 13.334C20.9442 13.334 21.3323 12.9556 21.3323 12.713C21.3323 12.4899 19.0425 8.48279 18.7903 8.25964C18.5574 8.06559 18.4507 8.05589 18.1305 8.22083Z" fill="#C73F3F"/>
<path d="M27.9799 12.9051C23.9534 13.4969 20.9456 15.0396 18.2678 17.9212C17.055 19.2213 15.8034 21.3753 15.1824 23.2284C13.339 28.7782 14.7846 34.9101 18.8693 38.9172C21.5181 41.5077 24.5258 42.9242 28.2903 43.3317C29.4158 43.4579 31.4824 43.3317 32.7825 43.0601C34.9753 42.6041 37.3912 41.4786 39.1764 40.0911C39.6227 39.7419 40.69 38.694 41.2818 38.0245C42.9118 36.1617 44.1246 33.6682 44.6874 30.9903C44.959 29.7096 44.9299 26.3332 44.6485 25.0428C43.2611 18.9012 38.798 14.4381 32.734 13.1379C32.0063 12.9827 31.3369 12.9245 30.0174 12.8954C29.0568 12.876 28.1448 12.8857 27.9799 12.9051ZM31.8608 16.2136C34.0341 16.6308 35.9746 17.5622 37.5367 18.9303C39.6227 20.764 40.9616 23.0829 41.5729 25.8966C41.8251 27.0609 41.796 29.1954 41.5244 30.4955C40.4571 35.5504 36.4791 39.2859 31.3272 40.062C30.1338 40.2464 29.2218 40.2464 27.9507 40.0523C22.3913 39.2276 18.1999 34.8131 17.6468 29.1954C17.3557 26.2362 18.2581 23.1314 20.1015 20.7543C21.9062 18.4257 24.1959 16.9704 27.1066 16.2815C28.4165 15.971 30.4637 15.9419 31.8608 16.2136Z" fill="#C73F3F"/>
<path d="M28.3679 20.6892C26.6894 21.2616 25.564 22.9887 25.7289 24.7351C25.8841 26.3845 26.9999 27.801 28.5038 28.2377C29.3091 28.4802 30.6383 28.3929 31.3466 28.0436C33.0057 27.248 33.9177 25.4822 33.5587 23.6969C33.2774 22.261 32.2295 21.0676 30.8906 20.6601C30.2405 20.466 28.9889 20.4855 28.3679 20.6892Z" fill="#C73F3F"/>
<path d="M27.9307 29.4288C24.9715 30.0789 22.6041 32.2037 21.6727 35.0562L21.498 35.5898L22.1287 36.1914C25.4372 39.3252 30.5601 40.0529 34.6642 37.9669C35.6926 37.443 36.4591 36.9093 37.2256 36.1914L37.8563 35.5898L37.6816 35.0562C37.3032 33.8919 36.7114 32.912 35.6635 31.6992C34.9844 30.9133 33.1409 29.8848 31.7632 29.5258C30.6474 29.2348 28.998 29.196 27.9307 29.4288Z" fill="#C73F3F"/>
<path d="M9.03977 19.2517C8.09864 19.4457 7.23513 20.1152 6.80822 20.9787C6.57536 21.4541 6.53655 21.6482 6.54626 22.3564C6.54626 23.0647 6.58507 23.2588 6.82763 23.7439C7.38066 24.8499 8.42852 25.4903 9.68983 25.5C10.5921 25.5 11.2713 25.2186 11.9408 24.5589C12.5811 23.9185 12.8237 23.2296 12.7752 22.2109C12.7364 21.2892 12.5132 20.7555 11.9117 20.1443C11.184 19.4166 10.0294 19.0576 9.03977 19.2517Z" fill="#C73F3F"/>
<path d="M49.1126 19.2492C48.1909 19.4433 47.3274 20.0933 46.8713 20.9471C46.6385 21.374 46.6094 21.539 46.6094 22.354C46.6094 23.169 46.6385 23.3339 46.8713 23.7705C47.0169 24.0422 47.3565 24.4691 47.6281 24.7116C49.1514 26.0797 51.6352 25.5849 52.5472 23.7317C52.7801 23.2563 52.8189 23.0622 52.8189 22.354C52.8189 21.3255 52.5666 20.7046 51.9069 20.0933C51.1404 19.3753 50.0828 19.0552 49.1126 19.2492Z" fill="#C73F3F"/>
<path d="M7.97356 26.3336C6.37267 26.7508 5.11136 27.6337 4.14112 29.0017C3.34553 30.1272 3.08356 30.9519 3.02535 32.5528C2.97684 33.7462 2.97684 33.7753 3.2194 34.0567L3.46196 34.338L9.00202 34.3671C12.8733 34.3866 14.5421 34.3574 14.5421 34.2895C14.5421 34.2313 14.4742 34.0276 14.3868 33.8238C13.8629 32.5625 13.4845 30.5735 13.4069 28.6816L13.3487 27.1971L12.7471 26.8672C11.4761 26.1589 9.49684 25.9358 7.97356 26.3336Z" fill="#C73F3F"/>
<path d="M48.0632 26.2963C47.743 26.3739 47.1512 26.597 46.7534 26.8008L46.0257 27.1598L45.9578 28.5763C45.8607 30.6429 45.6667 31.6132 44.842 34.1164C44.7935 34.2813 45.0943 34.291 50.2268 34.291C53.5935 34.291 55.7669 34.2522 55.9221 34.194C56.3781 34.0193 56.5043 33.5342 56.3781 32.3311C56.1453 30.0414 55.078 28.2658 53.2928 27.1501C52.1285 26.4224 51.3911 26.2089 49.9066 26.1798C49.0334 26.1604 48.4707 26.1992 48.0632 26.2963Z" fill="#C73F3F"/>
<path d="M41.1557 39.5977C40.4474 40.3059 39.8652 40.9269 39.8652 40.9657C39.8652 41.0045 40.622 41.7904 41.5437 42.7121L43.232 44.3906L44.6 43.0323L45.968 41.6837L44.2701 39.9954C43.3387 39.0737 42.5431 38.3169 42.5043 38.3072C42.4655 38.3072 41.8542 38.8797 41.1557 39.5977Z" fill="#C73F3F"/>
<path d="M47.0839 42.1093C46.6376 42.3325 43.6784 45.3499 43.6008 45.6604C43.562 45.8156 43.562 46.0485 43.5911 46.1843C43.659 46.4463 44.5031 47.4068 44.6292 47.368C44.7942 47.3098 48.9856 43.1766 48.9856 43.0795C48.9856 42.9049 48.1997 42.1675 47.8892 42.0608C47.5302 41.925 47.4429 41.925 47.0839 42.1093Z" fill="#C73F3F"/>
<path d="M47.5287 45.9811L45.3457 48.1642L48.4505 51.2786C50.1581 52.9862 51.7396 54.4901 51.953 54.6259C52.5061 54.9558 53.3502 55.0819 54.0293 54.9461C55.5817 54.6356 56.5714 53.4519 56.5714 51.8996C56.5714 50.5994 56.4937 50.4927 52.933 46.9222C51.2156 45.2049 49.7894 43.7981 49.7603 43.7981C49.7312 43.7981 48.7318 44.778 47.5287 45.9811Z" fill="#C73F3F"/>
</svg>
