<svg width="60" height="60" viewBox="0 0 60 60" fill="none" xmlns="http://www.w3.org/2000/svg">
<path d="M30 55C26.5417 55 23.2917 54.3438 20.25 53.0312C17.2083 51.7188 14.5625 49.9375 12.3125 47.6875C10.0625 45.4375 8.28125 42.7917 6.96875 39.75C5.65625 36.7083 5 33.4583 5 30C5 26.5417 5.65625 23.2917 6.96875 20.25C8.28125 17.2083 10.0625 14.5625 12.3125 12.3125C14.5625 10.0625 17.2083 8.28125 20.25 6.96875C23.2917 5.65625 26.5417 5 30 5C33.4583 5 36.7083 5.65625 39.75 6.96875C42.7917 8.28125 45.4375 10.0625 47.6875 12.3125C49.9375 14.5625 51.7188 17.2083 53.0312 20.25C54.3438 23.2917 55 26.5417 55 30C55 33.4583 54.3438 36.7083 53.0312 39.75C51.7188 42.7917 49.9375 45.4375 47.6875 47.6875C45.4375 49.9375 42.7917 51.7188 39.75 53.0312C36.7083 54.3438 33.4583 55 30 55ZM30 50C35.5833 50 40.3125 48.0625 44.1875 44.1875C48.0625 40.3125 50 35.5833 50 30C50 29.7083 49.9896 29.4062 49.9688 29.0938C49.9479 28.7812 49.9375 28.5208 49.9375 28.3125C49.7292 29.5208 49.1667 30.5208 48.25 31.3125C47.3333 32.1042 46.25 32.5 45 32.5H40C38.625 32.5 37.4479 32.0104 36.4688 31.0312C35.4896 30.0521 35 28.875 35 27.5V25H25V20C25 18.625 25.4896 17.4479 26.4688 16.4688C27.4479 15.4896 28.625 15 30 15H32.5C32.5 14.0417 32.7604 13.1979 33.2812 12.4688C33.8021 11.7396 34.4375 11.1458 35.1875 10.6875C34.3542 10.4792 33.5104 10.3125 32.6562 10.1875C31.8021 10.0625 30.9167 10 30 10C24.4167 10 19.6875 11.9375 15.8125 15.8125C11.9375 19.6875 10 24.4167 10 30H22.5C25.25 30 27.6042 30.9792 29.5625 32.9375C31.5208 34.8958 32.5 37.25 32.5 40V42.5H25V49.375C25.8333 49.5833 26.6562 49.7396 27.4688 49.8438C28.2812 49.9479 29.125 50 30 50Z" fill="#1A7D9C"/>
</svg>
