<svg width="60" height="60" viewBox="0 0 60 60" fill="none" xmlns="http://www.w3.org/2000/svg">
<path d="M30 55C26.5833 55 23.3542 54.3438 20.3125 53.0312C17.2708 51.7188 14.6146 49.9271 12.3438 47.6562C10.0729 45.3854 8.28125 42.7292 6.96875 39.6875C5.65625 36.6458 5 33.4167 5 30C5 26.5417 5.65625 23.3021 6.96875 20.2812C8.28125 17.2604 10.0729 14.6146 12.3438 12.3438C14.6146 10.0729 17.2708 8.28125 20.3125 6.96875C23.3542 5.65625 26.5833 5 30 5C33.4583 5 36.6979 5.65625 39.7188 6.96875C42.7396 8.28125 45.3854 10.0729 47.6562 12.3438C49.9271 14.6146 51.7188 17.2604 53.0312 20.2812C54.3438 23.3021 55 26.5417 55 30C55 33.4167 54.3438 36.6458 53.0312 39.6875C51.7188 42.7292 49.9271 45.3854 47.6562 47.6562C45.3854 49.9271 42.7396 51.7188 39.7188 53.0312C36.6979 54.3438 33.4583 55 30 55ZM30 49.875C31.0833 48.375 32.0208 46.8125 32.8125 45.1875C33.6042 43.5625 34.25 41.8333 34.75 40H25.25C25.75 41.8333 26.3958 43.5625 27.1875 45.1875C27.9792 46.8125 28.9167 48.375 30 49.875ZM23.5 48.875C22.75 47.5 22.0938 46.0729 21.5312 44.5938C20.9688 43.1146 20.5 41.5833 20.125 40H12.75C13.9583 42.0833 15.4688 43.8958 17.2812 45.4375C19.0938 46.9792 21.1667 48.125 23.5 48.875ZM36.5 48.875C38.8333 48.125 40.9062 46.9792 42.7188 45.4375C44.5312 43.8958 46.0417 42.0833 47.25 40H39.875C39.5 41.5833 39.0312 43.1146 38.4688 44.5938C37.9062 46.0729 37.25 47.5 36.5 48.875ZM10.625 35H19.125C19 34.1667 18.9062 33.3438 18.8438 32.5312C18.7812 31.7188 18.75 30.875 18.75 30C18.75 29.125 18.7812 28.2812 18.8438 27.4688C18.9062 26.6562 19 25.8333 19.125 25H10.625C10.4167 25.8333 10.2604 26.6562 10.1562 27.4688C10.0521 28.2812 10 29.125 10 30C10 30.875 10.0521 31.7188 10.1562 32.5312C10.2604 33.3438 10.4167 34.1667 10.625 35ZM24.125 35H35.875C36 34.1667 36.0938 33.3438 36.1562 32.5312C36.2188 31.7188 36.25 30.875 36.25 30C36.25 29.125 36.2188 28.2812 36.1562 27.4688C36.0938 26.6562 36 25.8333 35.875 25H24.125C24 25.8333 23.9062 26.6562 23.8438 27.4688C23.7812 28.2812 23.75 29.125 23.75 30C23.75 30.875 23.7812 31.7188 23.8438 32.5312C23.9062 33.3438 24 34.1667 24.125 35ZM40.875 35H49.375C49.5833 34.1667 49.7396 33.3438 49.8438 32.5312C49.9479 31.7188 50 30.875 50 30C50 29.125 49.9479 28.2812 49.8438 27.4688C49.7396 26.6562 49.5833 25.8333 49.375 25H40.875C41 25.8333 41.0938 26.6562 41.1562 27.4688C41.2188 28.2812 41.25 29.125 41.25 30C41.25 30.875 41.2188 31.7188 41.1562 32.5312C41.0938 33.3438 41 34.1667 40.875 35ZM39.875 20H47.25C46.0417 17.9167 44.5312 16.1042 42.7188 14.5625C40.9062 13.0208 38.8333 11.875 36.5 11.125C37.25 12.5 37.9062 13.9271 38.4688 15.4062C39.0312 16.8854 39.5 18.4167 39.875 20ZM25.25 20H34.75C34.25 18.1667 33.6042 16.4375 32.8125 14.8125C32.0208 13.1875 31.0833 11.625 30 10.125C28.9167 11.625 27.9792 13.1875 27.1875 14.8125C26.3958 16.4375 25.75 18.1667 25.25 20ZM12.75 20H20.125C20.5 18.4167 20.9688 16.8854 21.5312 15.4062C22.0938 13.9271 22.75 12.5 23.5 11.125C21.1667 11.875 19.0938 13.0208 17.2812 14.5625C15.4688 16.1042 13.9583 17.9167 12.75 20Z" fill="#1F8554"/>
</svg>
