<svg width="60" height="60" viewBox="0 0 60 60" fill="none" xmlns="http://www.w3.org/2000/svg">
<path d="M6.125 26.4372L16.625 15.9372C17.2083 15.3539 17.8958 14.9372 18.6875 14.6872C19.4792 14.4372 20.2917 14.3956 21.125 14.5622L24.375 15.2497C22.125 17.9164 20.3542 20.3331 19.0625 22.4997C17.7708 24.6664 16.5208 27.2914 15.3125 30.3747L6.125 26.4372ZM18.9375 32.1247C19.8958 29.1247 21.1979 26.2914 22.8438 23.6247C24.4896 20.9581 26.4792 18.4581 28.8125 16.1247C32.4792 12.4581 36.6667 9.71848 41.375 7.90598C46.0833 6.09348 50.4792 5.54139 54.5625 6.24973C55.2708 10.3331 54.7292 14.7289 52.9375 19.4372C51.1458 24.1456 48.4167 28.3331 44.75 31.9997C42.4583 34.2914 39.9583 36.281 37.25 37.9685C34.5417 39.656 31.6875 40.9789 28.6875 41.9372L18.9375 32.1247ZM36.1875 24.6247C37.1458 25.5831 38.3229 26.0622 39.7188 26.0622C41.1146 26.0622 42.2917 25.5831 43.25 24.6247C44.2083 23.6664 44.6875 22.4893 44.6875 21.0935C44.6875 19.6976 44.2083 18.5206 43.25 17.5622C42.2917 16.6039 41.1146 16.1247 39.7188 16.1247C38.3229 16.1247 37.1458 16.6039 36.1875 17.5622C35.2292 18.5206 34.75 19.6976 34.75 21.0935C34.75 22.4893 35.2292 23.6664 36.1875 24.6247ZM34.4375 54.6872L30.4375 45.4997C33.5208 44.2914 36.1562 43.0414 38.3438 41.7497C40.5312 40.4581 42.9583 38.6872 45.625 36.4372L46.25 39.6872C46.4167 40.5206 46.375 41.3435 46.125 42.156C45.875 42.9685 45.4583 43.6664 44.875 44.2497L34.4375 54.6872ZM10.125 40.1247C11.5833 38.6664 13.3542 37.9268 15.4375 37.906C17.5208 37.8851 19.2917 38.6039 20.75 40.0622C22.2083 41.5206 22.9375 43.2914 22.9375 45.3747C22.9375 47.4581 22.2083 49.2289 20.75 50.6872C19.7083 51.7289 17.9688 52.6247 15.5312 53.3747C13.0938 54.1247 9.72917 54.7914 5.4375 55.3747C6.02083 51.0831 6.6875 47.7289 7.4375 45.3122C8.1875 42.8956 9.08333 41.1664 10.125 40.1247Z" fill="#C73F3F"/>
</svg>
