<svg width="60" height="60" viewBox="0 0 60 60" fill="none" xmlns="http://www.w3.org/2000/svg">
<path d="M28.25 48H32.625V44.875C34.7083 44.5 36.5 43.6875 38 42.4375C39.5 41.1875 40.25 39.3333 40.25 36.875C40.25 35.125 39.75 33.5208 38.75 32.0625C37.75 30.6042 35.75 29.3333 32.75 28.25C30.25 27.4167 28.5208 26.6875 27.5625 26.0625C26.6042 25.4375 26.125 24.5833 26.125 23.5C26.125 22.4167 26.5104 21.5625 27.2812 20.9375C28.0521 20.3125 29.1667 20 30.625 20C31.9583 20 33 20.3229 33.75 20.9688C34.5 21.6146 35.0417 22.4167 35.375 23.375L39.375 21.75C38.9167 20.2917 38.0729 19.0208 36.8438 17.9375C35.6146 16.8542 34.25 16.25 32.75 16.125V13H28.375V16.125C26.2917 16.5833 24.6667 17.5 23.5 18.875C22.3333 20.25 21.75 21.7917 21.75 23.5C21.75 25.4583 22.3229 27.0417 23.4688 28.25C24.6146 29.4583 26.4167 30.5 28.875 31.375C31.5 32.3333 33.3229 33.1875 34.3438 33.9375C35.3646 34.6875 35.875 35.6667 35.875 36.875C35.875 38.25 35.3854 39.2604 34.4062 39.9062C33.4271 40.5521 32.25 40.875 30.875 40.875C29.5 40.875 28.2812 40.4479 27.2188 39.5938C26.1562 38.7396 25.375 37.4583 24.875 35.75L20.75 37.375C21.3333 39.375 22.2396 40.9896 23.4688 42.2188C24.6979 43.4479 26.2917 44.2917 28.25 44.75V48ZM30.5 55.5C27.0417 55.5 23.7917 54.8438 20.75 53.5312C17.7083 52.2188 15.0625 50.4375 12.8125 48.1875C10.5625 45.9375 8.78125 43.2917 7.46875 40.25C6.15625 37.2083 5.5 33.9583 5.5 30.5C5.5 27.0417 6.15625 23.7917 7.46875 20.75C8.78125 17.7083 10.5625 15.0625 12.8125 12.8125C15.0625 10.5625 17.7083 8.78125 20.75 7.46875C23.7917 6.15625 27.0417 5.5 30.5 5.5C33.9583 5.5 37.2083 6.15625 40.25 7.46875C43.2917 8.78125 45.9375 10.5625 48.1875 12.8125C50.4375 15.0625 52.2188 17.7083 53.5312 20.75C54.8438 23.7917 55.5 27.0417 55.5 30.5C55.5 33.9583 54.8438 37.2083 53.5312 40.25C52.2188 43.2917 50.4375 45.9375 48.1875 48.1875C45.9375 50.4375 43.2917 52.2188 40.25 53.5312C37.2083 54.8438 33.9583 55.5 30.5 55.5Z" fill="#FCA13B"/>
</svg>
