<svg width="60" height="60" viewBox="0 0 60 60" fill="none" xmlns="http://www.w3.org/2000/svg">
<path d="M28.9158 2.5974C28.4467 2.82148 28.3438 3.13724 28.3438 4.44099C28.3438 6.10125 28.4925 6.3457 29.5564 6.3457C30.1055 6.3457 30.4602 6.12162 30.586 5.69382C30.6204 5.56141 30.6318 4.89935 30.6089 4.21691C30.5746 3.12705 30.5517 2.96408 30.3344 2.77055C30.0369 2.51591 29.3047 2.42424 28.9158 2.5974Z" fill="#1F8554"/>
<path d="M26.9136 7.42609C25.2433 7.66036 23.2412 8.2715 21.7654 9.00486C20.1409 9.80953 19.1456 10.4818 17.8071 11.7142C15.7593 13.5986 14.4437 15.6968 13.7344 18.233C13.4484 19.2516 13.4255 19.496 13.4141 21.472C13.4141 23.1629 13.4598 23.7944 13.62 24.4768C14.089 26.4324 15.1072 28.4797 16.4114 30.0993C16.7775 30.5576 17.6813 31.4539 18.4249 32.1058C19.1685 32.7577 20.0494 33.6031 20.3812 34.0003C21.5366 35.3448 22.3031 36.9032 22.6807 38.6755C22.9209 39.7654 22.898 39.908 22.5777 40.0404C22.0629 40.2441 21.3307 40.9164 21.0676 41.4358C20.6786 42.1692 20.6901 43.1878 21.0905 43.9109C21.3994 44.461 22.1544 45.123 22.5777 45.2147C22.8294 45.2758 22.8294 45.3064 22.8751 47.6287C22.9095 49.8593 22.9323 50.0223 23.184 50.5316C23.47 51.0918 24.2937 51.8353 24.7399 51.9372C24.9458 51.9881 25.003 52.09 25.0602 52.5178C25.2204 53.9336 26.3072 55.2577 27.7144 55.7466C28.6525 56.0827 30.0596 56.0827 30.9977 55.7568C32.3934 55.2679 33.526 53.954 33.6747 52.6196C33.7434 52.09 33.7891 51.9881 34.0065 51.9372C34.4527 51.8353 35.2764 51.0918 35.5624 50.5316C35.8255 50.0223 35.8369 49.8593 35.8713 47.6694L35.9056 45.3573L36.3403 45.1536C38.4796 44.186 38.514 41.1303 36.409 40.1525L35.8713 39.908L35.9399 39.2765C36.1229 37.6162 37.267 35.243 38.5712 33.7966C38.9716 33.3485 39.7724 32.5947 40.3444 32.1262C42.518 30.3539 43.971 28.3983 44.8175 26.0963C45.401 24.5277 45.5497 23.5805 45.5497 21.6758C45.5497 19.7201 45.3781 18.6812 44.8061 17.1432C43.9595 14.8718 42.7697 13.1504 40.8249 11.429C38.4911 9.37155 36.0429 8.15946 32.9769 7.55851C31.5583 7.27331 28.4923 7.2122 26.9136 7.42609ZM31.8329 11.3883C34.2811 11.8976 36.1687 12.8347 38.1136 14.4847C39.3605 15.5542 40.127 16.4505 40.127 16.8376C40.127 17.3978 39.372 17.8765 38.7656 17.7034C38.6512 17.6728 38.3195 17.3876 38.0335 17.0617C36.2602 15.0551 34.3383 13.8634 31.9129 13.2523C30.6545 12.9263 28.3207 12.9365 27.0508 13.2523C24.7971 13.8227 22.7493 15.0347 21.2621 16.695C20.8617 17.133 20.4041 17.5608 20.2553 17.6321C19.6719 17.9173 18.8482 17.4487 18.8482 16.8478C18.8482 16.145 21.1591 13.9653 22.9895 12.9365C24.6369 12.0096 26.5017 11.3985 28.3436 11.1948C29.0643 11.1133 31.0435 11.2253 31.8329 11.3883ZM32.1532 15.3505C34.4298 16.0329 36.0772 17.1228 37.6445 18.9868C38.228 19.6794 37.9648 20.4535 37.1183 20.5757C36.6835 20.6368 36.6606 20.6165 35.9742 19.934C34.304 18.2738 33.3086 17.6117 31.7757 17.1228C31.135 16.9293 30.8147 16.8885 29.4876 16.8885C28.1605 16.8885 27.8402 16.9293 27.1996 17.1228C25.6322 17.6219 24.1679 18.5997 23.1268 19.822C22.3603 20.7489 21.8112 20.922 21.2392 20.4127C20.6214 19.8525 20.8502 19.2923 22.2459 17.9478C23.0582 17.1737 23.9734 16.5422 25.0488 16.0227C26.7534 15.2079 27.7716 14.994 29.7736 15.0449C30.9977 15.0755 31.421 15.1264 32.1532 15.3505ZM30.5058 18.8849C32.485 19.1701 34.0065 20.0053 35.2993 21.5433C35.9399 22.2971 36.02 22.6943 35.6081 23.1323C35.0819 23.6925 34.3154 23.5397 33.7663 22.7758C33.3201 22.1545 32.2905 21.3396 31.5812 21.0443C30.2541 20.5044 28.7097 20.5044 27.3712 21.0544C26.7076 21.3193 25.5636 22.2054 25.3119 22.6434C24.8085 23.5092 23.9276 23.7231 23.3671 23.1323C22.9781 22.7249 23.0239 22.3378 23.5501 21.6656C25.1518 19.5979 27.8745 18.4979 30.5058 18.8849ZM31.2036 22.9693C32.1646 23.3666 32.7366 23.8759 33.2286 24.762C33.629 25.475 33.6633 25.6074 33.6633 26.4019C33.6633 27.1352 33.6175 27.3695 33.3544 27.8584C32.9426 28.6427 32.1303 29.3965 31.2723 29.7733L30.5744 30.0891L30.5172 33.705L30.46 37.331L30.1397 37.5755C29.7279 37.8912 29.2474 37.8912 28.8355 37.5755L28.5152 37.331L28.4809 33.7253L28.4465 30.1094L27.783 29.8242C25.5979 28.8974 24.6827 26.7482 25.678 24.8639C26.2386 23.7944 26.9593 23.2036 28.1491 22.8267C29.0071 22.5517 30.3571 22.6128 31.2036 22.9693ZM35.5738 41.9757C35.9399 42.2914 35.9285 42.9128 35.5624 43.2591L35.2878 43.5239H29.4762H23.676L23.3785 43.2081C23.0467 42.8618 23.0124 42.5868 23.2298 42.1998C23.5158 41.6905 23.5272 41.6905 29.6249 41.7109L35.3107 41.7414L35.5738 41.9757ZM33.7205 47.5879C33.7205 49.5945 33.7205 49.6251 33.4459 49.9103L33.1714 50.1955H29.4876H25.8038L25.5293 49.9103C25.2547 49.6251 25.2547 49.5945 25.2547 47.5879V45.561H29.4876H33.7205V47.5879Z" fill="#1F8554"/>
<path d="M14.3309 8.12724C14.1136 8.31058 14.0449 8.48373 14.0449 8.83004C14.0449 9.24765 14.1021 9.32914 14.7428 9.9199C16.1499 11.2135 16.6533 11.3968 17.3512 10.8672C17.6486 10.6533 17.7058 10.531 17.7058 10.1745C17.7058 9.78749 17.6372 9.68563 16.8821 8.98283C16.4245 8.56522 15.9211 8.14761 15.761 8.04575C15.3377 7.78093 14.6627 7.82167 14.3309 8.12724Z" fill="#1F8554"/>
<path d="M43.2183 8.04816C43.0581 8.15001 42.5547 8.56762 42.1086 8.98523C41.3421 9.68804 41.2734 9.78989 41.2734 10.1769C41.2734 10.5334 41.3306 10.6557 41.6281 10.8696C42.3374 11.3992 42.7721 11.2464 44.2822 9.88156C44.8771 9.33154 44.9343 9.23987 44.9343 8.83245C44.9343 8.48614 44.8657 8.31298 44.6483 8.12964C44.3165 7.82407 43.6416 7.78333 43.2183 8.04816Z" fill="#1F8554"/>
<path d="M8.5755 20.7563C7.93484 21.0007 7.79756 21.9073 8.32381 22.3758C8.52974 22.5591 8.72422 22.5897 9.93689 22.6203C10.7034 22.6406 11.447 22.6304 11.5957 22.5999C12.0648 22.4878 12.3279 22.1415 12.3279 21.6119C12.3279 21.0517 12.0762 20.7665 11.5042 20.6646C10.8407 20.5526 8.96446 20.6035 8.5755 20.7563Z" fill="#1F8554"/>
<path d="M47.3692 20.685C46.8544 20.8276 46.6484 21.0822 46.6484 21.6017C46.6484 22.1415 46.9001 22.4878 47.3806 22.5999C47.5293 22.6304 48.2844 22.6406 49.0509 22.6203C50.4123 22.5897 50.4466 22.5795 50.7212 22.3045C51.2131 21.7952 51.0301 21.0007 50.3665 20.7563C49.9661 20.6035 47.884 20.5526 47.3692 20.685Z" fill="#1F8554"/>
<path d="M15.086 33.0323C14.0792 33.9185 14.0449 33.9592 14.0449 34.4074C14.0449 35.0083 14.4339 35.375 15.0631 35.375C15.5894 35.375 15.8525 35.212 16.8707 34.2648C17.6143 33.5721 17.7058 33.4499 17.7058 33.0934C17.7058 32.5128 17.2596 32.1156 16.6075 32.1156C16.1614 32.1156 16.0698 32.1767 15.086 33.0323Z" fill="#1F8554"/>
<path d="M41.5823 32.4008C41.3535 32.6147 41.2734 32.7879 41.2734 33.0934C41.2734 33.4499 41.365 33.5721 42.1086 34.2648C43.1268 35.212 43.3899 35.375 43.9161 35.375C44.5453 35.375 44.9343 35.0083 44.9343 34.4074C44.9343 33.9592 44.9114 33.9185 43.8818 33.0323C42.898 32.1767 42.795 32.1156 42.3603 32.1156C41.9942 32.1156 41.8226 32.1767 41.5823 32.4008Z" fill="#1F8554"/>
</svg>
