<svg width="60" height="60" viewBox="0 0 60 60" fill="none" xmlns="http://www.w3.org/2000/svg">
<path d="M30 35C29.2917 35 28.6979 34.7604 28.2188 34.2812C27.7396 33.8021 27.5 33.2083 27.5 32.5C27.5 31.7917 27.7396 31.1979 28.2188 30.7188C28.6979 30.2396 29.2917 30 30 30C30.7083 30 31.3021 30.2396 31.7812 30.7188C32.2604 31.1979 32.5 31.7917 32.5 32.5C32.5 33.2083 32.2604 33.8021 31.7812 34.2812C31.3021 34.7604 30.7083 35 30 35ZM20 35C19.2917 35 18.6979 34.7604 18.2188 34.2812C17.7396 33.8021 17.5 33.2083 17.5 32.5C17.5 31.7917 17.7396 31.1979 18.2188 30.7188C18.6979 30.2396 19.2917 30 20 30C20.7083 30 21.3021 30.2396 21.7812 30.7188C22.2604 31.1979 22.5 31.7917 22.5 32.5C22.5 33.2083 22.2604 33.8021 21.7812 34.2812C21.3021 34.7604 20.7083 35 20 35ZM40 35C39.2917 35 38.6979 34.7604 38.2188 34.2812C37.7396 33.8021 37.5 33.2083 37.5 32.5C37.5 31.7917 37.7396 31.1979 38.2188 30.7188C38.6979 30.2396 39.2917 30 40 30C40.7083 30 41.3021 30.2396 41.7812 30.7188C42.2604 31.1979 42.5 31.7917 42.5 32.5C42.5 33.2083 42.2604 33.8021 41.7812 34.2812C41.3021 34.7604 40.7083 35 40 35ZM30 45C29.2917 45 28.6979 44.7604 28.2188 44.2812C27.7396 43.8021 27.5 43.2083 27.5 42.5C27.5 41.7917 27.7396 41.1979 28.2188 40.7188C28.6979 40.2396 29.2917 40 30 40C30.7083 40 31.3021 40.2396 31.7812 40.7188C32.2604 41.1979 32.5 41.7917 32.5 42.5C32.5 43.2083 32.2604 43.8021 31.7812 44.2812C31.3021 44.7604 30.7083 45 30 45ZM20 45C19.2917 45 18.6979 44.7604 18.2188 44.2812C17.7396 43.8021 17.5 43.2083 17.5 42.5C17.5 41.7917 17.7396 41.1979 18.2188 40.7188C18.6979 40.2396 19.2917 40 20 40C20.7083 40 21.3021 40.2396 21.7812 40.7188C22.2604 41.1979 22.5 41.7917 22.5 42.5C22.5 43.2083 22.2604 43.8021 21.7812 44.2812C21.3021 44.7604 20.7083 45 20 45ZM40 45C39.2917 45 38.6979 44.7604 38.2188 44.2812C37.7396 43.8021 37.5 43.2083 37.5 42.5C37.5 41.7917 37.7396 41.1979 38.2188 40.7188C38.6979 40.2396 39.2917 40 40 40C40.7083 40 41.3021 40.2396 41.7812 40.7188C42.2604 41.1979 42.5 41.7917 42.5 42.5C42.5 43.2083 42.2604 43.8021 41.7812 44.2812C41.3021 44.7604 40.7083 45 40 45ZM12.5 55C11.125 55 9.94792 54.5104 8.96875 53.5312C7.98958 52.5521 7.5 51.375 7.5 50V15C7.5 13.625 7.98958 12.4479 8.96875 11.4688C9.94792 10.4896 11.125 10 12.5 10H15V5H20V10H40V5H45V10H47.5C48.875 10 50.0521 10.4896 51.0312 11.4688C52.0104 12.4479 52.5 13.625 52.5 15V50C52.5 51.375 52.0104 52.5521 51.0312 53.5312C50.0521 54.5104 48.875 55 47.5 55H12.5ZM12.5 50H47.5V25H12.5V50Z" fill="#1A7D9C"/>
</svg>
