<svg width="60" height="60" viewBox="0 0 60 60" fill="none" xmlns="http://www.w3.org/2000/svg">
<path d="M30 55C26.5417 55 23.2917 54.3438 20.25 53.0312C17.2083 51.7188 14.5625 49.9375 12.3125 47.6875C10.0625 45.4375 8.28125 42.7917 6.96875 39.75C5.65625 36.7083 5 33.4583 5 30C5 26.5417 5.65625 23.2917 6.96875 20.25C8.28125 17.2083 10.0625 14.5625 12.3125 12.3125C14.5625 10.0625 17.2083 8.28125 20.25 6.96875C23.2917 5.65625 26.5417 5 30 5C33.4583 5 36.7083 5.65625 39.75 6.96875C42.7917 8.28125 45.4375 10.0625 47.6875 12.3125C49.9375 14.5625 51.7188 17.2083 53.0312 20.25C54.3438 23.2917 55 26.5417 55 30C55 33.4583 54.3438 36.7083 53.0312 39.75C51.7188 42.7917 49.9375 45.4375 47.6875 47.6875C45.4375 49.9375 42.7917 51.7188 39.75 53.0312C36.7083 54.3438 33.4583 55 30 55ZM30 50C35.5833 50 40.3125 48.0625 44.1875 44.1875C48.0625 40.3125 50 35.5833 50 30C50 24.4167 48.0625 19.6875 44.1875 15.8125C40.3125 11.9375 35.5833 10 30 10C24.4167 10 19.6875 11.9375 15.8125 15.8125C11.9375 19.6875 10 24.4167 10 30C10 35.5833 11.9375 40.3125 15.8125 44.1875C19.6875 48.0625 24.4167 50 30 50ZM30 45C25.8333 45 22.2917 43.5417 19.375 40.625C16.4583 37.7083 15 34.1667 15 30C15 25.8333 16.4583 22.2917 19.375 19.375C22.2917 16.4583 25.8333 15 30 15C34.1667 15 37.7083 16.4583 40.625 19.375C43.5417 22.2917 45 25.8333 45 30C45 34.1667 43.5417 37.7083 40.625 40.625C37.7083 43.5417 34.1667 45 30 45ZM30 40C32.75 40 35.1042 39.0208 37.0625 37.0625C39.0208 35.1042 40 32.75 40 30C40 27.25 39.0208 24.8958 37.0625 22.9375C35.1042 20.9792 32.75 20 30 20C27.25 20 24.8958 20.9792 22.9375 22.9375C20.9792 24.8958 20 27.25 20 30C20 32.75 20.9792 35.1042 22.9375 37.0625C24.8958 39.0208 27.25 40 30 40ZM30 35C28.625 35 27.4479 34.5104 26.4688 33.5312C25.4896 32.5521 25 31.375 25 30C25 28.625 25.4896 27.4479 26.4688 26.4688C27.4479 25.4896 28.625 25 30 25C31.375 25 32.5521 25.4896 33.5312 26.4688C34.5104 27.4479 35 28.625 35 30C35 31.375 34.5104 32.5521 33.5312 33.5312C32.5521 34.5104 31.375 35 30 35Z" fill="#C73F3F"/>
</svg>
