<svg width="60" height="60" viewBox="0 0 60 60" fill="none" xmlns="http://www.w3.org/2000/svg">
<path d="M29.4846 7.88634C29.3464 8.01531 28.9227 8.872 28.4068 10.0327C27.9463 11.092 27.5594 11.9764 27.5502 11.9856C27.5502 11.9856 26.6474 12.0869 25.5604 12.1882C23.0917 12.4369 22.9166 12.483 22.7416 12.8975C22.6311 13.1555 22.6311 13.2568 22.7232 13.4871C22.7969 13.6345 23.5246 14.3622 24.4089 15.1544C25.2748 15.919 25.9842 16.6007 26.0026 16.6651C26.021 16.7204 25.8368 17.6416 25.6065 18.7102C25.3762 19.7695 25.1919 20.7736 25.1919 20.9394C25.1919 21.3171 25.542 21.6855 25.9012 21.6855C26.0671 21.6855 26.8685 21.271 28.066 20.5801L29.9821 19.4747L31.8981 20.5801C32.9759 21.1973 33.9247 21.6855 34.0536 21.6855C34.1826 21.6855 34.3945 21.6026 34.5327 21.4921C34.8643 21.225 34.8459 20.9394 34.3576 18.6733C34.1273 17.6232 33.9523 16.7204 33.9615 16.6559C33.98 16.6007 34.6985 15.9282 35.5552 15.1544C36.4211 14.3806 37.1764 13.6345 37.2409 13.4779C37.333 13.2568 37.333 13.1555 37.2225 12.8975C37.0475 12.483 36.8724 12.4369 34.4037 12.1882C33.3167 12.0869 32.414 11.9856 32.414 11.9856C32.4047 11.9764 32.0179 11.092 31.5573 10.0327C30.6729 8.01531 30.4519 7.68368 29.9821 7.68368C29.8347 7.68368 29.6136 7.7758 29.4846 7.88634Z" fill="#C73F3F"/>
<path d="M13.1522 14.6111C13.0508 14.7309 12.6824 15.4678 12.3415 16.2508C11.9915 17.0338 11.6875 17.7063 11.6599 17.7431C11.6322 17.7708 10.9045 17.8721 10.0386 17.955C9.1819 18.0379 8.35284 18.1485 8.21467 18.2037C7.90147 18.3235 7.75408 18.6459 7.86462 18.9407C7.91068 19.0604 8.50944 19.6592 9.20032 20.2856C9.8912 20.912 10.4531 21.4555 10.4531 21.5015C10.4531 21.5476 10.3057 22.2477 10.1307 23.0675C9.76224 24.7717 9.74382 25.0112 9.97411 25.2139C10.3242 25.5363 10.49 25.4718 12.5902 24.2374C13.0785 23.9519 13.5114 23.7124 13.5575 23.7124C13.6128 23.7124 14.2944 24.0808 15.0866 24.5414C15.8788 24.9928 16.625 25.3705 16.754 25.3705C17.0119 25.3705 17.3619 25.0849 17.3619 24.873C17.3619 24.7625 16.8737 22.3859 16.6803 21.5752C16.6618 21.4739 16.975 21.1331 17.6291 20.5527C19.3056 19.0512 19.2964 19.0604 19.2964 18.7656C19.2964 18.2498 19.103 18.1761 17.2053 17.9826C16.2565 17.8813 15.4735 17.7892 15.4643 17.78C15.4643 17.78 15.1603 17.0891 14.7919 16.2508C14.4234 15.4126 14.0457 14.6572 13.9352 14.5651C13.6772 14.3532 13.3825 14.3716 13.1522 14.6111Z" fill="#C73F3F"/>
<path d="M46.0476 14.5473C45.9371 14.621 45.5594 15.3487 45.1725 16.233L44.4908 17.7898L42.7682 17.9741C40.8706 18.1767 40.668 18.2504 40.668 18.7663C40.668 19.061 40.7417 19.1347 42.3814 20.5902C43.0262 21.1613 43.3117 21.4653 43.2841 21.5759C43.0814 22.4325 42.6024 24.7078 42.6024 24.8368C42.6024 25.0855 42.9341 25.3711 43.2288 25.3711C43.3762 25.3711 44.0487 25.0395 44.8962 24.542C45.67 24.0814 46.3424 23.713 46.3885 23.713C46.4253 23.713 47.1162 24.0814 47.9084 24.542C48.7098 24.9934 49.4468 25.3711 49.5481 25.3711C49.8613 25.3711 50.1561 25.1132 50.1561 24.846C50.1561 24.7171 49.9995 23.888 49.8152 23.0129C49.631 22.1286 49.4928 21.4008 49.5205 21.3824C49.5389 21.364 50.1284 20.8481 50.8285 20.2217C51.9708 19.1992 52.0905 19.061 52.0905 18.7847C52.0905 18.4439 51.9063 18.2044 51.6023 18.1491C51.4918 18.1214 50.718 18.0385 49.8889 17.9556C49.0599 17.8727 48.3506 17.799 48.3229 17.7806C48.2953 17.753 47.9821 17.0713 47.6228 16.2515C47.2728 15.4316 46.9043 14.6855 46.8122 14.5841C46.6188 14.3723 46.3056 14.3538 46.0476 14.5473Z" fill="#C73F3F"/>
<path d="M28.462 25.6369C26.4814 26.208 24.9983 27.8293 24.5838 29.8743C24.2153 31.735 24.7496 33.4392 26.1498 34.8118C27.2736 35.9172 28.462 36.4238 29.9819 36.4238C32.377 36.4238 34.5417 34.821 35.251 32.5088C35.4905 31.7443 35.5274 30.3993 35.3339 29.6071C34.8733 27.7095 33.2797 26.0975 31.4005 25.6092C30.6359 25.4158 29.1897 25.425 28.462 25.6369Z" fill="#C73F3F"/>
<path d="M12.3878 28.346C10.3152 28.9356 8.99789 31.0082 9.33873 33.1361C9.78089 35.8812 12.5905 37.4657 15.2066 36.4432C16.1831 36.0563 17.1503 35.0614 17.5556 34.0297C17.8412 33.3112 17.8964 32.086 17.6846 31.303C17.3714 30.1515 16.4686 29.0922 15.354 28.5671C14.8197 28.3184 14.6355 28.2815 13.7788 28.2539C13.1708 28.2355 12.6457 28.2723 12.3878 28.346Z" fill="#C73F3F"/>
<path d="M45.0701 28.4006C44.0752 28.723 43.0435 29.5705 42.6198 30.3995C41.9473 31.726 41.9841 33.4486 42.7211 34.7014C43.0619 35.2725 43.8818 35.9911 44.6095 36.3503C45.2083 36.6451 45.2543 36.6543 46.3781 36.6543C47.5388 36.6543 47.5388 36.6543 48.2481 36.3043C51.4722 34.7106 51.4722 30.2153 48.2573 28.6309C47.6125 28.3085 47.502 28.2808 46.5808 28.2532C45.7978 28.2348 45.4846 28.2624 45.0701 28.4006Z" fill="#C73F3F"/>
<path d="M25.2466 37.0321C24.1136 37.6033 23.3214 38.1836 22.3357 39.1877C20.4473 41.0945 19.4985 43.1948 19.2958 45.8939C19.0655 48.8232 19.9222 50.2694 22.3357 51.0524C25.4124 52.0565 28.9313 52.4618 32.0541 52.1763C34.6334 51.9368 37.4614 51.2643 38.7603 50.5826C39.7735 50.0484 40.4828 48.9798 40.6671 47.6901C40.7592 47.0085 40.6763 45.4056 40.4921 44.4845C39.8657 41.334 37.6548 38.4876 34.6702 37.0137L34.053 36.7097L33.1503 37.1519C31.9804 37.7322 31.1974 37.9257 30.0275 37.9349C28.83 37.9441 27.8904 37.7138 26.7666 37.1427C26.2875 36.9032 25.8914 36.7005 25.8914 36.7005C25.8822 36.7097 25.5967 36.8571 25.2466 37.0321Z" fill="#C73F3F"/>
<path d="M9.73449 37.549C8.29746 38.3136 7.27495 39.2348 6.47353 40.4783C5.44181 42.0812 5.15625 43.0853 5.15625 45.0842C5.15625 46.4568 5.16546 46.5305 5.40497 46.9726C5.86555 47.8385 6.40905 48.2162 7.87372 48.6676C10.886 49.5888 14.2851 49.7546 17.4632 49.1282C17.9606 49.0268 18.0159 48.9992 17.9698 48.8242C17.6658 47.7004 17.675 45.5817 17.9974 44.1538C18.3383 42.6431 19.0199 40.985 19.674 40.0914C19.8214 39.8796 19.9411 39.6677 19.9411 39.6124C19.9411 39.465 18.8725 38.4425 18.3751 38.1017C18.1448 37.9543 17.7119 37.6964 17.4079 37.549L16.8644 37.2634L16.367 37.5398C15.5932 37.9635 14.847 38.1754 13.9258 38.2307C12.8389 38.3044 11.9361 38.1201 10.9781 37.6319L10.2596 37.2726L9.73449 37.549Z" fill="#C73F3F"/>
<path d="M42.4553 37.6117C42.1053 37.7959 41.6723 38.0446 41.4973 38.1644C41.1104 38.4315 40.0234 39.4725 40.0234 39.583C40.0234 39.6199 40.1708 39.8778 40.3458 40.1541C41.1196 41.3609 41.7184 42.8808 42.004 44.3547C42.2343 45.5246 42.2895 47.4591 42.1053 48.2973C42.0224 48.675 41.9763 48.9974 41.9855 49.0066C42.004 49.0251 42.5106 49.1264 43.1094 49.2461C44.049 49.4212 44.5372 49.4488 46.3335 49.4488C48.793 49.458 49.8616 49.3198 51.7868 48.7671C53.4634 48.2881 54.0806 47.892 54.5596 46.9708C54.7715 46.5655 54.8083 46.3813 54.8359 45.368C54.8544 44.7232 54.8267 43.9862 54.7715 43.6638C54.2556 40.9648 52.6988 38.8645 50.2301 37.5472L49.705 37.2709L48.9865 37.6301C47.3284 38.4684 45.4399 38.4684 43.791 37.6301L43.091 37.2709L42.4553 37.6117Z" fill="#C73F3F"/>
</svg>
