<svg width="184" height="58" viewBox="0 0 184 58" fill="none" xmlns="http://www.w3.org/2000/svg">
<rect x="0.5" y="0.5" width="183" height="57" rx="28.5" fill="white"/>
<rect x="0.5" y="0.5" width="183" height="57" rx="28.5" stroke="#C7CDCF"/>
<path d="M47.7305 11.1336C46.4649 11.45 45.2626 12.0758 44.1868 12.9898C42.3797 14.5227 41.2266 17.0609 41.4024 19.1211L41.4516 19.7188L41.986 19.6695C43.4063 19.557 44.7493 18.9805 46.0008 17.9398C47.1399 17.0047 48.1735 15.3242 48.6165 13.707C48.729 13.2922 48.7782 12.8633 48.7993 12.0688L48.8344 11L48.5321 11.007C48.3633 11.007 48.0047 11.0633 47.7305 11.1336Z" fill="black"/>
<path d="M35.0741 19.4445C31.7272 19.7328 28.3663 22.5664 27.2342 26.0539C26.503 28.318 26.4045 31.1375 26.96 33.9922C27.4733 36.6008 28.4577 39.118 29.9131 41.5156C31.46 44.0609 33.042 45.7906 34.5116 46.5359C35.2006 46.8805 35.7209 47 36.5506 47C37.3944 47 37.9147 46.8734 39.0608 46.3812C40.5514 45.7414 41.4725 45.5234 42.703 45.5234C43.8842 45.5234 44.6999 45.7203 46.1413 46.3461C47.3436 46.8664 47.8569 47 48.6866 47C49.4741 47 50.0717 46.8453 50.7889 46.4586C52.5749 45.4883 54.9163 42.5281 56.6178 39.0898C57.0045 38.3164 57.335 37.6203 57.3561 37.543C57.3913 37.4234 57.2928 37.3461 56.667 37.0367C54.7475 36.0594 53.4186 34.5055 52.7295 32.4453C52.3991 31.4469 52.3077 30.7437 52.3569 29.5344C52.3991 28.3883 52.5889 27.5937 53.0319 26.6445C53.6436 25.3367 54.6772 24.1625 55.8655 23.4242C56.1256 23.2625 56.3436 23.1008 56.3436 23.0727C56.3436 22.9672 55.6053 22.1727 55.078 21.7156C54.1006 20.8648 52.8702 20.1336 51.8436 19.8031C50.9788 19.5219 50.367 19.4234 49.3827 19.4234C47.9905 19.4234 47.1608 19.5992 45.1991 20.3305C43.6241 20.9141 42.717 21.0336 41.5288 20.8086C41.2194 20.7523 40.3194 20.4852 39.5319 20.218C37.4366 19.5078 36.3959 19.332 35.0741 19.4445Z" fill="black"/>
<path d="M86.874 22L91.242 12.2H93.482L97.864 22H95.484L91.9 13.348H92.796L89.198 22H86.874ZM89.058 19.9L89.66 18.178H94.7L95.316 19.9H89.058ZM103.179 22.112C102.544 22.112 101.989 21.972 101.513 21.692C101.037 21.412 100.663 20.9873 100.393 20.418C100.131 19.8393 100.001 19.1113 100.001 18.234C100.001 17.3473 100.127 16.6193 100.379 16.05C100.631 15.4807 100.995 15.056 101.471 14.776C101.947 14.496 102.516 14.356 103.179 14.356C103.888 14.356 104.523 14.5193 105.083 14.846C105.652 15.1633 106.1 15.6113 106.427 16.19C106.763 16.7687 106.931 17.45 106.931 18.234C106.931 19.0273 106.763 19.7133 106.427 20.292C106.1 20.8707 105.652 21.3187 105.083 21.636C104.523 21.9533 103.888 22.112 103.179 22.112ZM98.7268 24.716V14.468H100.813V16.008L100.771 18.248L100.911 20.474V24.716H98.7268ZM102.801 20.32C103.165 20.32 103.487 20.236 103.767 20.068C104.056 19.9 104.285 19.662 104.453 19.354C104.63 19.0367 104.719 18.6633 104.719 18.234C104.719 17.7953 104.63 17.422 104.453 17.114C104.285 16.806 104.056 16.568 103.767 16.4C103.487 16.232 103.165 16.148 102.801 16.148C102.437 16.148 102.11 16.232 101.821 16.4C101.531 16.568 101.303 16.806 101.135 17.114C100.967 17.422 100.883 17.7953 100.883 18.234C100.883 18.6633 100.967 19.0367 101.135 19.354C101.303 19.662 101.531 19.9 101.821 20.068C102.11 20.236 102.437 20.32 102.801 20.32ZM112.845 22.112C112.21 22.112 111.655 21.972 111.179 21.692C110.703 21.412 110.329 20.9873 110.059 20.418C109.797 19.8393 109.667 19.1113 109.667 18.234C109.667 17.3473 109.793 16.6193 110.045 16.05C110.297 15.4807 110.661 15.056 111.137 14.776C111.613 14.496 112.182 14.356 112.845 14.356C113.554 14.356 114.189 14.5193 114.749 14.846C115.318 15.1633 115.766 15.6113 116.093 16.19C116.429 16.7687 116.597 17.45 116.597 18.234C116.597 19.0273 116.429 19.7133 116.093 20.292C115.766 20.8707 115.318 21.3187 114.749 21.636C114.189 21.9533 113.554 22.112 112.845 22.112ZM108.393 24.716V14.468H110.479V16.008L110.437 18.248L110.577 20.474V24.716H108.393ZM112.467 20.32C112.831 20.32 113.153 20.236 113.433 20.068C113.722 19.9 113.951 19.662 114.119 19.354C114.296 19.0367 114.385 18.6633 114.385 18.234C114.385 17.7953 114.296 17.422 114.119 17.114C113.951 16.806 113.722 16.568 113.433 16.4C113.153 16.232 112.831 16.148 112.467 16.148C112.103 16.148 111.776 16.232 111.487 16.4C111.197 16.568 110.969 16.806 110.801 17.114C110.633 17.422 110.549 17.7953 110.549 18.234C110.549 18.6633 110.633 19.0367 110.801 19.354C110.969 19.662 111.197 19.9 111.487 20.068C111.776 20.236 112.103 20.32 112.467 20.32ZM125.398 22.168C124.614 22.168 123.862 22.0653 123.144 21.86C122.425 21.6453 121.846 21.37 121.408 21.034L122.178 19.326C122.598 19.6247 123.092 19.872 123.662 20.068C124.24 20.2547 124.824 20.348 125.412 20.348C125.86 20.348 126.219 20.306 126.49 20.222C126.77 20.1287 126.975 20.0027 127.106 19.844C127.236 19.6853 127.302 19.5033 127.302 19.298C127.302 19.0367 127.199 18.8313 126.994 18.682C126.788 18.5233 126.518 18.3973 126.182 18.304C125.846 18.2013 125.472 18.108 125.062 18.024C124.66 17.9307 124.254 17.8187 123.844 17.688C123.442 17.5573 123.074 17.3893 122.738 17.184C122.402 16.9787 122.126 16.708 121.912 16.372C121.706 16.036 121.604 15.6067 121.604 15.084C121.604 14.524 121.753 14.0153 122.052 13.558C122.36 13.0913 122.817 12.7227 123.424 12.452C124.04 12.172 124.81 12.032 125.734 12.032C126.35 12.032 126.956 12.1067 127.554 12.256C128.151 12.396 128.678 12.6107 129.136 12.9L128.436 14.622C127.978 14.3607 127.521 14.1693 127.064 14.048C126.606 13.9173 126.158 13.852 125.72 13.852C125.281 13.852 124.922 13.9033 124.642 14.006C124.362 14.1087 124.161 14.244 124.04 14.412C123.918 14.5707 123.858 14.7573 123.858 14.972C123.858 15.224 123.96 15.4293 124.166 15.588C124.371 15.7373 124.642 15.8587 124.978 15.952C125.314 16.0453 125.682 16.1387 126.084 16.232C126.494 16.3253 126.9 16.4327 127.302 16.554C127.712 16.6753 128.086 16.8387 128.422 17.044C128.758 17.2493 129.028 17.52 129.234 17.856C129.448 18.192 129.556 18.6167 129.556 19.13C129.556 19.6807 129.402 20.1847 129.094 20.642C128.786 21.0993 128.324 21.468 127.708 21.748C127.101 22.028 126.331 22.168 125.398 22.168ZM134.031 22.112C133.145 22.112 132.454 21.888 131.959 21.44C131.465 20.9827 131.217 20.306 131.217 19.41V12.802H133.401V19.382C133.401 19.6993 133.485 19.9467 133.653 20.124C133.821 20.292 134.05 20.376 134.339 20.376C134.685 20.376 134.979 20.2827 135.221 20.096L135.809 21.636C135.585 21.7947 135.315 21.916 134.997 22C134.689 22.0747 134.367 22.112 134.031 22.112ZM130.055 16.316V14.636H135.277V16.316H130.055ZM140.387 22.112C139.584 22.112 138.87 21.944 138.245 21.608C137.629 21.272 137.139 20.8147 136.775 20.236C136.42 19.648 136.243 18.9807 136.243 18.234C136.243 17.478 136.42 16.8107 136.775 16.232C137.139 15.644 137.629 15.1867 138.245 14.86C138.87 14.524 139.584 14.356 140.387 14.356C141.18 14.356 141.89 14.524 142.515 14.86C143.14 15.1867 143.63 15.6393 143.985 16.218C144.34 16.7967 144.517 17.4687 144.517 18.234C144.517 18.9807 144.34 19.648 143.985 20.236C143.63 20.8147 143.14 21.272 142.515 21.608C141.89 21.944 141.18 22.112 140.387 22.112ZM140.387 20.32C140.751 20.32 141.078 20.236 141.367 20.068C141.656 19.9 141.885 19.662 142.053 19.354C142.221 19.0367 142.305 18.6633 142.305 18.234C142.305 17.7953 142.221 17.422 142.053 17.114C141.885 16.806 141.656 16.568 141.367 16.4C141.078 16.232 140.751 16.148 140.387 16.148C140.023 16.148 139.696 16.232 139.407 16.4C139.118 16.568 138.884 16.806 138.707 17.114C138.539 17.422 138.455 17.7953 138.455 18.234C138.455 18.6633 138.539 19.0367 138.707 19.354C138.884 19.662 139.118 19.9 139.407 20.068C139.696 20.236 140.023 20.32 140.387 20.32ZM145.977 22V14.468H148.063V16.596L147.769 15.98C147.993 15.448 148.352 15.0467 148.847 14.776C149.341 14.496 149.943 14.356 150.653 14.356V16.372C150.559 16.3627 150.475 16.358 150.401 16.358C150.326 16.3487 150.247 16.344 150.163 16.344C149.565 16.344 149.08 16.5167 148.707 16.862C148.343 17.198 148.161 17.7253 148.161 18.444V22H145.977ZM155.635 22.112C154.776 22.112 154.02 21.944 153.367 21.608C152.723 21.272 152.223 20.8147 151.869 20.236C151.514 19.648 151.337 18.9807 151.337 18.234C151.337 17.478 151.509 16.8107 151.855 16.232C152.209 15.644 152.69 15.1867 153.297 14.86C153.903 14.524 154.589 14.356 155.355 14.356C156.092 14.356 156.755 14.5147 157.343 14.832C157.94 15.14 158.411 15.588 158.757 16.176C159.102 16.7547 159.275 17.45 159.275 18.262C159.275 18.346 159.27 18.444 159.261 18.556C159.251 18.6587 159.242 18.7567 159.233 18.85H153.115V17.576H158.085L157.245 17.954C157.245 17.562 157.165 17.2213 157.007 16.932C156.848 16.6427 156.629 16.4187 156.349 16.26C156.069 16.092 155.742 16.008 155.369 16.008C154.995 16.008 154.664 16.092 154.375 16.26C154.095 16.4187 153.875 16.6473 153.717 16.946C153.558 17.2353 153.479 17.5807 153.479 17.982V18.318C153.479 18.7287 153.567 19.0927 153.745 19.41C153.931 19.718 154.188 19.956 154.515 20.124C154.851 20.2827 155.243 20.362 155.691 20.362C156.092 20.362 156.442 20.3013 156.741 20.18C157.049 20.0587 157.329 19.8767 157.581 19.634L158.743 20.894C158.397 21.286 157.963 21.5893 157.441 21.804C156.918 22.0093 156.316 22.112 155.635 22.112Z" fill="black"/>
<path d="M128.623 36.741L123.416 35.9843L121.089 31.2654C121.025 31.1362 120.92 31.0316 120.791 30.9681C120.467 30.8081 120.073 30.9414 119.911 31.2654L117.584 35.9843L112.377 36.741C112.233 36.7615 112.102 36.8292 112.002 36.9317C111.88 37.0566 111.813 37.2246 111.815 37.3988C111.818 37.573 111.889 37.7391 112.014 37.8608L115.781 41.5337L114.891 46.7201C114.87 46.8408 114.884 46.9649 114.93 47.0783C114.976 47.1917 115.053 47.29 115.152 47.362C115.251 47.4339 115.368 47.4767 115.49 47.4854C115.612 47.4941 115.734 47.4684 115.843 47.4112L120.5 44.9626L125.157 47.4112C125.285 47.4789 125.432 47.5015 125.574 47.4769C125.931 47.4153 126.17 47.077 126.109 46.7201L125.219 41.5337L128.986 37.8608C129.089 37.7603 129.156 37.629 129.177 37.4855C129.232 37.1266 128.982 36.7943 128.623 36.741V36.741Z" fill="#FCA13B"/>
<path d="M136.608 43.248V42.128L142.336 34.8H144.064L138.384 42.128L137.568 41.872H146.512V43.248H136.608ZM142.832 46V43.248L142.88 41.872V39.44H144.384V46H142.832ZM148.84 46.096C148.541 46.096 148.285 45.9947 148.072 45.792C147.858 45.5787 147.752 45.312 147.752 44.992C147.752 44.672 147.858 44.4107 148.072 44.208C148.285 44.0053 148.541 43.904 148.84 43.904C149.128 43.904 149.373 44.0053 149.576 44.208C149.789 44.4107 149.896 44.672 149.896 44.992C149.896 45.312 149.789 45.5787 149.576 45.792C149.373 45.9947 149.128 46.096 148.84 46.096ZM155.025 46.128C154.235 46.128 153.467 46.0053 152.721 45.76C151.985 45.5147 151.382 45.184 150.913 44.768L151.649 43.504C152.022 43.856 152.507 44.144 153.105 44.368C153.702 44.592 154.337 44.704 155.009 44.704C155.862 44.704 156.518 44.5227 156.977 44.16C157.435 43.7973 157.665 43.312 157.665 42.704C157.665 42.288 157.563 41.9253 157.361 41.616C157.158 41.3067 156.806 41.072 156.305 40.912C155.814 40.7413 155.137 40.656 154.273 40.656H151.729L152.321 34.8H158.641V36.192H152.913L153.745 35.408L153.281 40.032L152.449 39.264H154.609C155.729 39.264 156.63 39.408 157.313 39.696C157.995 39.984 158.491 40.384 158.801 40.896C159.11 41.3973 159.265 41.9787 159.265 42.64C159.265 43.28 159.11 43.8667 158.801 44.4C158.491 44.9227 158.022 45.344 157.393 45.664C156.774 45.9733 155.985 46.128 155.025 46.128Z" fill="black"/>
</svg>
