<svg width="60" height="60" viewBox="0 0 60 60" fill="none" xmlns="http://www.w3.org/2000/svg">
<rect width="60" height="60" rx="8" fill="#FCA13B"/>
<path d="M28.8494 53.9352C27.9722 53.8121 26.4885 53.3233 25.8049 52.9311C23.7587 51.759 22.3154 49.8255 21.7148 47.4538L21.4531 46.4232L20.5458 46.4451C19.4749 46.4715 18.1296 46.161 17.2384 45.6836C16.4315 45.2512 15.3363 44.1355 14.8856 43.2855C14.3726 42.3181 14.1616 41.4141 14.1628 40.1937C14.1651 38.5041 14.4798 37.6299 15.7121 35.8931L16.4361 34.8717L16.5007 32.7001C16.5641 30.5401 16.6851 29.7326 17.1312 28.4708L17.3307 27.9095L17.0448 27.7232C16.0614 27.0814 14.3173 25.7046 13.5437 24.9593C11.177 22.6784 10.0035 19.8926 10 16.5501C9.99771 14.7558 10.1902 13.9311 11.4272 10.4092C12.4163 7.59237 12.5074 7.38763 13.0019 6.87694C13.4065 6.46057 13.6832 6.29149 14.2054 6.14081C15.4977 5.76815 16.2759 6.09365 17.7353 7.61882C20.902 10.9291 23.301 14.5327 25.0602 18.6228C25.4821 19.6028 25.8614 20.4424 25.904 20.4884C25.9467 20.5333 26.5 20.4608 27.1329 20.3274C28.7607 19.9847 31.4144 19.9858 32.943 20.3309C33.5413 20.4666 34.0462 20.5598 34.067 20.539C34.0877 20.5195 34.4716 19.6591 34.9201 18.6274C35.8919 16.396 36.6792 14.9399 37.9888 12.9546C39.8218 10.1746 42.7591 6.78492 43.7505 6.30644C44.9056 5.74859 46.3766 6.05915 47.1616 7.02647C47.5132 7.46009 49.2056 12.0137 49.6759 13.792C50.3284 16.2534 49.9779 19.3911 48.7848 21.7755C47.6804 23.9851 46.6267 25.0628 43.0173 27.6749L42.6484 27.9418L42.8709 28.5847C43.3078 29.8511 43.4427 30.8552 43.4427 32.8301V34.7406L44.2485 35.8667C45.4382 37.5298 45.8636 38.657 45.8636 40.15C45.8636 43.1198 43.9269 45.6215 41.1164 46.2829C40.7163 46.3772 39.9659 46.4554 39.4494 46.4566L38.511 46.4577L38.3093 47.2916C37.6614 49.9854 36.1282 51.9338 33.6831 53.1668C32.3747 53.8271 30.3631 54.1468 28.8494 53.9352ZM31.7994 52.9955C32.0853 52.9288 32.7851 52.6516 33.3557 52.379C34.6192 51.7763 35.6014 50.9205 36.4026 49.7266C37.2164 48.512 37.8343 46.475 37.673 45.5376L37.6038 45.135L37.5162 45.48C36.9916 47.5309 35.9553 48.7915 34.2422 49.4644C33.2543 49.852 31.6553 49.8359 30.6755 49.4287L29.955 49.1296L29.2829 49.4011C27.9618 49.9336 26.6568 49.875 25.2585 49.2228C23.9028 48.589 22.7592 47.0926 22.4871 45.5939L22.3834 45.02L22.29 45.4777C22.1586 46.1173 22.5609 47.8115 23.1143 48.9502C23.452 49.6449 23.776 50.0763 24.5345 50.8377C25.8752 52.1857 27.1456 52.8517 28.9025 53.1277C29.6299 53.2416 31.0144 53.1784 31.7994 52.9955ZM28.9855 48.65C29.3936 48.4706 29.4938 48.3682 29.4938 48.1347C29.4938 47.9081 29.4224 47.8276 29.1768 47.7782C27.6332 47.4653 26.4412 46.9454 25.7265 46.2737C25.4498 46.0126 25.3438 45.8125 25.3438 45.5479C25.3438 45.0717 25.7057 44.3759 26.1461 44.0066L26.4966 43.7122V40.3628C26.4966 36.62 26.4136 35.9759 25.7484 34.5531C25.3057 33.6077 25.0533 33.2511 24.9207 33.3834C24.8677 33.4363 24.7962 34.989 24.7593 36.834C24.697 40.0706 24.6832 40.2213 24.3881 41.1093C24.2186 41.6154 23.8659 42.3918 23.603 42.8346L23.1258 43.6397L23.233 44.7324C23.3644 46.0632 23.7229 46.9166 24.4584 47.6516C25.6781 48.8674 27.5548 49.2815 28.9855 48.65ZM34.1673 48.5982C35.0642 48.1888 35.9657 47.2962 36.3611 46.4255C36.6262 45.8435 36.6954 45.5054 36.7346 44.6174C36.7807 43.5316 36.7784 43.5201 36.3634 42.8254C35.3916 41.1967 35.1552 39.9441 35.1379 36.3359C35.1322 34.8499 35.0895 33.5409 35.0457 33.4282C34.98 33.2637 34.8901 33.3466 34.5846 33.8503C34.3748 34.1943 34.0647 34.8556 33.8952 35.3203C33.5874 36.1611 33.5863 36.1715 33.5517 39.9384L33.5171 43.7122L33.7949 43.9307C34.2376 44.2781 34.7333 45.3179 34.6365 45.6986C34.4555 46.4198 32.8116 47.3802 31.2253 47.693C30.4749 47.8403 30.3008 47.9139 30.3008 48.083C30.3008 48.1991 30.4357 48.3809 30.6005 48.489C31.4617 49.0514 33.0664 49.1009 34.1673 48.5982ZM31.1308 46.9063C31.8963 46.7487 33.2739 46.1035 33.6093 45.7469L33.8641 45.4766L33.607 45.0188C33.2635 44.4069 32.8669 44.3517 32.3101 44.8394C31.819 45.2696 31.1412 45.3167 30.5579 44.9625C30.0806 44.6715 29.7809 44.6715 29.4097 44.9625C28.9059 45.3581 27.8649 45.2109 27.4246 44.683C27.0891 44.2781 26.4228 44.6335 26.1991 45.3351C26.1081 45.6215 26.3628 45.8481 27.3508 46.3577C28.5117 46.9569 29.9065 47.1593 31.1308 46.9063ZM21.4658 45.4513C21.4969 45.3409 21.558 45.0683 21.6006 44.8474C21.6444 44.6266 21.837 44.1481 22.0283 43.7858C22.343 43.1888 22.3695 43.06 22.2992 42.4435C22.1863 41.4428 21.8197 40.2225 21.3332 39.2264C20.6369 37.7978 18.7878 36.0829 17.3618 35.5423C17.054 35.425 17.0263 35.4514 16.2344 36.5947C15.1646 38.1372 14.9248 38.8882 14.9882 40.5112C15.0308 41.5786 15.0723 41.7626 15.4562 42.5539C16.4246 44.5484 18.1941 45.6284 20.5228 45.6457C21.2709 45.6514 21.4173 45.6215 21.4658 45.4513ZM40.8143 45.5249C42.8467 45.0982 44.5125 43.4005 44.9471 41.3117C45.1396 40.3858 45.0278 39.0573 44.6843 38.2096C44.5298 37.8289 44.0721 37.0479 43.6652 36.4763L42.9274 35.4353L42.5216 35.6033C39.9463 36.6683 38.0614 39.3035 37.6972 42.348C37.6084 43.0899 37.6222 43.1612 37.9888 43.8882C38.1998 44.3068 38.405 44.8474 38.443 45.0878C38.4857 45.3535 38.5871 45.5456 38.7012 45.5755C39.0805 45.6767 40.2206 45.6491 40.8143 45.5249ZM29.1745 44.1573C29.6598 43.8617 30.3723 43.8617 30.8196 44.1573C31.2657 44.4518 31.5942 44.4483 31.8686 44.1447C31.9885 44.0101 32.1983 43.8583 32.3332 43.8065C32.5764 43.7145 32.581 43.657 32.6352 40.1684C32.6848 37.0192 32.7182 36.5223 32.9373 35.7137C33.2381 34.6003 33.6335 33.7204 34.1638 32.9831C34.3852 32.676 34.5662 32.3528 34.5662 32.2654C34.5662 31.9928 33.5932 30.7736 33.1171 30.448C32.8681 30.2778 32.3758 30.0317 32.0231 29.9017C31.6703 29.7717 31.0801 29.483 30.7124 29.2622C30.3435 29.0402 30.0264 28.8596 30.0068 28.8596C29.9872 28.8596 29.6691 29.0379 29.3002 29.2541C28.9313 29.4715 28.2811 29.7867 27.8557 29.9558C26.9588 30.31 26.2141 30.9196 25.6965 31.7248L25.3311 32.2918L25.738 32.8577C26.2383 33.5513 26.7686 34.6704 27.0315 35.5883C27.1952 36.1588 27.2378 36.9202 27.2747 39.9775L27.3208 43.6765L27.6494 43.8123C27.8304 43.887 28.0678 44.0469 28.1773 44.1677C28.4321 44.4483 28.7007 44.4449 29.1745 44.1573ZM23.6388 40.8229C23.859 40.1546 23.8935 39.7141 23.9604 36.7385C24.0204 34.0643 24.0722 33.3063 24.2232 32.9141L24.4112 32.4252L23.7391 31.8662C23.369 31.5591 22.3984 30.9288 21.5822 30.4642C20.766 29.9995 19.6432 29.345 19.0852 29.0091C18.5284 28.6744 18.0569 28.3995 18.0362 28.3995C17.9497 28.3995 17.4978 30.1352 17.3929 30.8725C17.3307 31.3153 17.2776 32.3378 17.2765 33.1453L17.2742 34.6141L17.899 34.889C20.4202 36.0012 22.1782 38.2131 22.8883 41.1622C23.0647 41.896 23.1039 41.965 23.2388 41.781C23.3229 41.666 23.5028 41.2358 23.6388 40.8229ZM37.1427 40.9367C37.7225 38.4132 39.5117 36.1427 41.7492 35.0914L42.6496 34.6681L42.6 32.4828C42.5597 30.6666 42.5089 30.1513 42.298 29.4347C42.1585 28.9608 42.0086 28.5364 41.966 28.4939C41.9222 28.4513 41.5498 28.6204 41.1371 28.8711C40.7244 29.1219 39.5693 29.7959 38.5687 30.3687C37.568 30.9426 36.4879 31.6523 36.1674 31.9468C35.6025 32.4678 35.5898 32.4931 35.7316 32.8278C35.8331 33.0636 35.9034 34.2242 35.9553 36.5085C36.0175 39.2137 36.0706 39.9637 36.2343 40.4767C36.5593 41.4946 36.7818 41.9938 36.866 41.8937C36.9098 41.842 37.0343 41.4106 37.1427 40.9367ZM25.6769 30.4457C26.2718 29.7982 26.6914 29.5221 27.6574 29.1437C28.0471 28.9919 28.5947 28.7331 28.8748 28.5686L29.3855 28.2707L28.7976 27.6162C27.6378 26.3246 26.5727 24.4854 25.9052 22.6232C25.4925 21.4742 25.6124 21.5144 24.3293 22.0884C22.1378 23.0695 19.6847 25.2388 18.6541 27.1056C18.3232 27.706 18.0823 27.4989 21.1718 29.2702C22.4606 30.0087 23.7829 30.8368 24.1114 31.1117L24.7097 31.6098L24.9403 31.3038C25.0671 31.1347 25.3991 30.7494 25.6769 30.4457ZM35.5576 31.3763C35.893 31.0036 36.564 30.5711 38.858 29.2449C41.6478 27.6324 41.5971 27.6634 41.5971 27.5737C41.5982 27.53 41.2881 27.0308 40.9089 26.4649C39.7584 24.7499 38.0003 23.2593 35.8838 22.2057C34.4209 21.4776 34.4198 21.4776 34.1823 22.2678C33.6739 23.9632 32.5338 26.0175 31.2473 27.5553C30.8092 28.0798 30.6916 28.2926 30.7954 28.3754C31.0225 28.556 31.8571 28.9562 32.5441 29.2127C33.373 29.5221 34.2111 30.1904 34.761 30.9806C35.0031 31.328 35.2313 31.6132 35.2694 31.6155C35.3063 31.6178 35.4365 31.5108 35.5576 31.3763ZM30.838 26.734C31.7718 25.5597 32.5176 24.2772 33.0548 22.9223C33.765 21.1337 33.8157 21.3304 32.581 21.0877C31.1781 20.8105 28.9002 20.8116 27.4476 21.0888C26.8609 21.2004 26.3813 21.335 26.3813 21.3879C26.3813 21.848 27.571 24.4773 28.2788 25.5815C28.8125 26.4143 29.8224 27.5944 30.0011 27.5944C30.0852 27.5944 30.4622 27.2068 30.838 26.734ZM17.3941 20.5805C16.9502 12.5946 15.6026 8.27099 13.5564 8.27099C13.3339 8.27099 13.1034 8.3354 13.0423 8.41476C12.8463 8.67126 11.1667 13.5953 10.9914 14.4246C10.7931 15.3666 10.7666 17.4818 10.9396 18.4583C11.2093 19.9766 11.9229 21.6593 12.8394 22.9361C13.5287 23.8953 14.5674 24.8776 16.1214 26.0359L17.4471 27.0239L17.4828 24.9225C17.5024 23.7665 17.4621 21.8135 17.3941 20.5805ZM43.8266 26.06C45.5177 24.8006 46.1656 24.2047 46.9391 23.196C48.5438 21.1015 49.3289 18.5434 49.1675 15.9279C49.0799 14.5005 48.9577 14.0324 47.8452 10.8727C46.8665 8.09041 46.8331 8.0421 46.0181 8.26064C44.184 8.75292 43 12.5739 42.5216 19.543C42.3994 21.3304 42.3614 27.0193 42.4721 27.0193C42.5089 27.0193 43.1176 26.588 43.8266 26.06ZM18.993 25.179C20.2449 23.6009 22.3546 22.0251 24.3063 21.2119C24.7178 21.0394 25.0717 20.8841 25.0913 20.8657C25.172 20.7909 23.55 17.2092 22.9044 16.0349C21.2202 12.9753 18.8086 9.7651 16.6713 7.74074C16.0464 7.14724 15.6925 6.90109 15.3905 6.84473C14.8867 6.75042 14.1685 6.92525 13.7973 7.2335L13.5276 7.45779L13.8077 7.46239C14.2804 7.46815 15.0654 7.92247 15.4747 8.42511C17.2315 10.5852 18.3094 16.5087 18.3117 24.0196C18.3117 25.1215 18.3313 26.0014 18.3555 25.9749C18.3797 25.9485 18.6668 25.5896 18.993 25.179ZM41.5982 23.3674C41.5994 17.5439 42.3671 12.1978 43.5603 9.70414C44.2139 8.33655 44.9828 7.62112 46.0307 7.40488L46.372 7.33472L45.9812 7.08858C45.4405 6.74697 44.5575 6.75272 43.9914 7.10238C43.5603 7.36808 41.6662 9.40509 40.4985 10.8589C39.6016 11.9746 37.8286 14.6512 37.0527 16.059C36.4913 17.0781 34.9097 20.5747 34.9132 20.7898C34.9132 20.8312 35.3674 21.0727 35.9219 21.3246C36.4763 21.5777 37.3836 22.0815 37.9392 22.4449C38.9894 23.1316 40.6841 24.666 41.1544 25.3549C41.3031 25.5735 41.4645 25.7529 41.5118 25.7529C41.559 25.7541 41.5982 24.6798 41.5982 23.3674Z" fill="#FEFEFD"/>
</svg>
