<svg width="184" height="58" viewBox="0 0 184 58" fill="none" xmlns="http://www.w3.org/2000/svg">
<rect x="0.5" y="0.5" width="183" height="57" rx="28.5" fill="white"/>
<rect x="0.5" y="0.5" width="183" height="57" rx="28.5" stroke="#C7CDCF"/>
<path d="M29.8576 13.0391C29.6888 13.0742 29.506 13.1305 29.4497 13.1586C29.3724 13.2078 31.0951 14.9656 36.5865 20.457L43.8286 27.6992L46.4302 25.0977C48.4271 23.1078 49.0107 22.482 48.9404 22.4188C48.7927 22.2852 32.0935 13.3766 31.6576 13.2008C31.1935 13.0109 30.3357 12.9336 29.8576 13.0391Z" fill="black"/>
<path d="M27.8392 14.3258C27.5649 14.6844 27.3188 15.282 27.2415 15.7813C27.1431 16.393 27.136 40.9953 27.2345 41.6914C27.3118 42.2047 27.5931 42.8727 27.8954 43.2383L28.0712 43.4492L35.4188 36.1016L42.7735 28.7539L35.447 21.4273C31.411 17.3914 28.0923 14.0938 28.0642 14.0938C28.036 14.0938 27.9376 14.1992 27.8392 14.3258Z" fill="black"/>
<path d="M47.5898 25.9762L44.8477 28.7184L47.632 31.5027L50.4164 34.2871L52.9406 32.9371C54.3258 32.1918 55.6125 31.4746 55.8023 31.341C57.0258 30.448 57.3984 28.5918 56.6391 27.1504C56.2242 26.3559 55.9148 26.1309 53.0531 24.598C51.6539 23.8457 50.4656 23.234 50.4164 23.234C50.3672 23.234 49.0945 24.4715 47.5898 25.9762Z" fill="black"/>
<path d="M36.5648 37.0012C32.5922 40.9739 29.3438 44.2434 29.3438 44.2716C29.3438 44.377 30.1875 44.4825 30.7641 44.4544C31.2562 44.4262 31.4672 44.37 31.8539 44.1942C32.318 43.9692 48.8766 35.138 48.975 35.0536C49.0031 35.0255 47.85 33.8302 46.4086 32.3887L43.793 29.7731L36.5648 37.0012Z" fill="black"/>
<path d="M77.894 22.168C77.1193 22.168 76.4053 22.0467 75.752 21.804C75.108 21.552 74.5433 21.1973 74.058 20.74C73.582 20.2827 73.2087 19.746 72.938 19.13C72.6767 18.514 72.546 17.8373 72.546 17.1C72.546 16.3627 72.6767 15.686 72.938 15.07C73.2087 14.454 73.5867 13.9173 74.072 13.46C74.5573 13.0027 75.1267 12.6527 75.78 12.41C76.4333 12.158 77.152 12.032 77.936 12.032C78.804 12.032 79.5833 12.1767 80.274 12.466C80.974 12.7553 81.562 13.1753 82.038 13.726L80.582 15.07C80.2273 14.6967 79.84 14.4213 79.42 14.244C79 14.0573 78.5427 13.964 78.048 13.964C77.572 13.964 77.138 14.0387 76.746 14.188C76.354 14.3373 76.0133 14.552 75.724 14.832C75.444 15.112 75.2247 15.4433 75.066 15.826C74.9167 16.2087 74.842 16.6333 74.842 17.1C74.842 17.5573 74.9167 17.9773 75.066 18.36C75.2247 18.7427 75.444 19.0787 75.724 19.368C76.0133 19.648 76.3493 19.8627 76.732 20.012C77.124 20.1613 77.5533 20.236 78.02 20.236C78.468 20.236 78.902 20.166 79.322 20.026C79.7513 19.8767 80.1667 19.6293 80.568 19.284L81.856 20.922C81.324 21.3233 80.7033 21.6313 79.994 21.846C79.294 22.0607 78.594 22.168 77.894 22.168ZM79.784 20.628V16.946H81.856V20.922L79.784 20.628ZM87.3928 22.112C86.5901 22.112 85.8761 21.944 85.2508 21.608C84.6348 21.272 84.1448 20.8147 83.7808 20.236C83.4261 19.648 83.2488 18.9807 83.2488 18.234C83.2488 17.478 83.4261 16.8107 83.7808 16.232C84.1448 15.644 84.6348 15.1867 85.2508 14.86C85.8761 14.524 86.5901 14.356 87.3928 14.356C88.1861 14.356 88.8954 14.524 89.5208 14.86C90.1461 15.1867 90.6361 15.6393 90.9908 16.218C91.3454 16.7967 91.5228 17.4687 91.5228 18.234C91.5228 18.9807 91.3454 19.648 90.9908 20.236C90.6361 20.8147 90.1461 21.272 89.5208 21.608C88.8954 21.944 88.1861 22.112 87.3928 22.112ZM87.3928 20.32C87.7568 20.32 88.0834 20.236 88.3728 20.068C88.6621 19.9 88.8908 19.662 89.0588 19.354C89.2268 19.0367 89.3108 18.6633 89.3108 18.234C89.3108 17.7953 89.2268 17.422 89.0588 17.114C88.8908 16.806 88.6621 16.568 88.3728 16.4C88.0834 16.232 87.7568 16.148 87.3928 16.148C87.0288 16.148 86.7021 16.232 86.4128 16.4C86.1234 16.568 85.8901 16.806 85.7128 17.114C85.5448 17.422 85.4608 17.7953 85.4608 18.234C85.4608 18.6633 85.5448 19.0367 85.7128 19.354C85.8901 19.662 86.1234 19.9 86.4128 20.068C86.7021 20.236 87.0288 20.32 87.3928 20.32ZM96.5666 22.112C95.7639 22.112 95.0499 21.944 94.4246 21.608C93.8086 21.272 93.3186 20.8147 92.9546 20.236C92.5999 19.648 92.4226 18.9807 92.4226 18.234C92.4226 17.478 92.5999 16.8107 92.9546 16.232C93.3186 15.644 93.8086 15.1867 94.4246 14.86C95.0499 14.524 95.7639 14.356 96.5666 14.356C97.3599 14.356 98.0693 14.524 98.6946 14.86C99.3199 15.1867 99.8099 15.6393 100.165 16.218C100.519 16.7967 100.697 17.4687 100.697 18.234C100.697 18.9807 100.519 19.648 100.165 20.236C99.8099 20.8147 99.3199 21.272 98.6946 21.608C98.0693 21.944 97.3599 22.112 96.5666 22.112ZM96.5666 20.32C96.9306 20.32 97.2573 20.236 97.5466 20.068C97.8359 19.9 98.0646 19.662 98.2326 19.354C98.4006 19.0367 98.4846 18.6633 98.4846 18.234C98.4846 17.7953 98.4006 17.422 98.2326 17.114C98.0646 16.806 97.8359 16.568 97.5466 16.4C97.2573 16.232 96.9306 16.148 96.5666 16.148C96.2026 16.148 95.8759 16.232 95.5866 16.4C95.2973 16.568 95.0639 16.806 94.8866 17.114C94.7186 17.422 94.6346 17.7953 94.6346 18.234C94.6346 18.6633 94.7186 19.0367 94.8866 19.354C95.0639 19.662 95.2973 19.9 95.5866 20.068C95.8759 20.236 96.2026 20.32 96.5666 20.32ZM105.698 24.828C104.989 24.828 104.303 24.7393 103.64 24.562C102.987 24.394 102.441 24.1373 102.002 23.792L102.87 22.224C103.188 22.4853 103.589 22.6907 104.074 22.84C104.569 22.9987 105.054 23.078 105.53 23.078C106.305 23.078 106.865 22.9053 107.21 22.56C107.565 22.2147 107.742 21.7013 107.742 21.02V19.886L107.882 17.996L107.854 16.092V14.468H109.926V20.74C109.926 22.14 109.562 23.1713 108.834 23.834C108.106 24.4967 107.061 24.828 105.698 24.828ZM105.362 21.636C104.662 21.636 104.028 21.4867 103.458 21.188C102.898 20.88 102.446 20.4553 102.1 19.914C101.764 19.3633 101.596 18.724 101.596 17.996C101.596 17.2587 101.764 16.6193 102.1 16.078C102.446 15.5273 102.898 15.1027 103.458 14.804C104.028 14.5053 104.662 14.356 105.362 14.356C105.997 14.356 106.557 14.4867 107.042 14.748C107.528 15 107.906 15.3967 108.176 15.938C108.447 16.47 108.582 17.156 108.582 17.996C108.582 18.8267 108.447 19.5127 108.176 20.054C107.906 20.586 107.528 20.9827 107.042 21.244C106.557 21.5053 105.997 21.636 105.362 21.636ZM105.796 19.844C106.179 19.844 106.52 19.7693 106.818 19.62C107.117 19.4613 107.35 19.242 107.518 18.962C107.686 18.682 107.77 18.36 107.77 17.996C107.77 17.6227 107.686 17.3007 107.518 17.03C107.35 16.75 107.117 16.5353 106.818 16.386C106.52 16.2273 106.179 16.148 105.796 16.148C105.414 16.148 105.073 16.2273 104.774 16.386C104.476 16.5353 104.238 16.75 104.06 17.03C103.892 17.3007 103.808 17.6227 103.808 17.996C103.808 18.36 103.892 18.682 104.06 18.962C104.238 19.242 104.476 19.4613 104.774 19.62C105.073 19.7693 105.414 19.844 105.796 19.844ZM111.959 22V11.612H114.143V22H111.959ZM119.908 22.112C119.049 22.112 118.293 21.944 117.64 21.608C116.996 21.272 116.497 20.8147 116.142 20.236C115.787 19.648 115.61 18.9807 115.61 18.234C115.61 17.478 115.783 16.8107 116.128 16.232C116.483 15.644 116.963 15.1867 117.57 14.86C118.177 14.524 118.863 14.356 119.628 14.356C120.365 14.356 121.028 14.5147 121.616 14.832C122.213 15.14 122.685 15.588 123.03 16.176C123.375 16.7547 123.548 17.45 123.548 18.262C123.548 18.346 123.543 18.444 123.534 18.556C123.525 18.6587 123.515 18.7567 123.506 18.85H117.388V17.576H122.358L121.518 17.954C121.518 17.562 121.439 17.2213 121.28 16.932C121.121 16.6427 120.902 16.4187 120.622 16.26C120.342 16.092 120.015 16.008 119.642 16.008C119.269 16.008 118.937 16.092 118.648 16.26C118.368 16.4187 118.149 16.6473 117.99 16.946C117.831 17.2353 117.752 17.5807 117.752 17.982V18.318C117.752 18.7287 117.841 19.0927 118.018 19.41C118.205 19.718 118.461 19.956 118.788 20.124C119.124 20.2827 119.516 20.362 119.964 20.362C120.365 20.362 120.715 20.3013 121.014 20.18C121.322 20.0587 121.602 19.8767 121.854 19.634L123.016 20.894C122.671 21.286 122.237 21.5893 121.714 21.804C121.191 22.0093 120.589 22.112 119.908 22.112ZM129.121 22V12.2H133.363C134.24 12.2 134.996 12.3447 135.631 12.634C136.266 12.914 136.756 13.32 137.101 13.852C137.446 14.384 137.619 15.0187 137.619 15.756C137.619 16.484 137.446 17.114 137.101 17.646C136.756 18.178 136.266 18.5887 135.631 18.878C134.996 19.158 134.24 19.298 133.363 19.298H130.381L131.389 18.276V22H129.121ZM131.389 18.528L130.381 17.45H133.237C133.937 17.45 134.46 17.3007 134.805 17.002C135.15 16.7033 135.323 16.288 135.323 15.756C135.323 15.2147 135.15 14.7947 134.805 14.496C134.46 14.1973 133.937 14.048 133.237 14.048H130.381L131.389 12.97V18.528ZM139.221 22V11.612H141.405V22H139.221ZM148.052 22V20.53L147.912 20.208V17.576C147.912 17.1093 147.767 16.7453 147.478 16.484C147.198 16.2227 146.764 16.092 146.176 16.092C145.774 16.092 145.378 16.1573 144.986 16.288C144.603 16.4093 144.276 16.5773 144.006 16.792L143.222 15.266C143.632 14.9767 144.127 14.7527 144.706 14.594C145.284 14.4353 145.872 14.356 146.47 14.356C147.618 14.356 148.509 14.6267 149.144 15.168C149.778 15.7093 150.096 16.554 150.096 17.702V22H148.052ZM145.756 22.112C145.168 22.112 144.664 22.014 144.244 21.818C143.824 21.6127 143.502 21.3373 143.278 20.992C143.054 20.6467 142.942 20.2593 142.942 19.83C142.942 19.382 143.049 18.99 143.264 18.654C143.488 18.318 143.838 18.0567 144.314 17.87C144.79 17.674 145.41 17.576 146.176 17.576H148.178V18.85H146.414C145.9 18.85 145.546 18.934 145.35 19.102C145.163 19.27 145.07 19.48 145.07 19.732C145.07 20.012 145.177 20.236 145.392 20.404C145.616 20.5627 145.919 20.642 146.302 20.642C146.666 20.642 146.992 20.558 147.282 20.39C147.571 20.2127 147.781 19.956 147.912 19.62L148.248 20.628C148.089 21.1133 147.8 21.482 147.38 21.734C146.96 21.986 146.418 22.112 145.756 22.112ZM152.888 24.828C152.496 24.828 152.108 24.7673 151.726 24.646C151.343 24.5247 151.03 24.3567 150.788 24.142L151.586 22.588C151.754 22.7373 151.945 22.854 152.16 22.938C152.384 23.022 152.603 23.064 152.818 23.064C153.126 23.064 153.368 22.9893 153.546 22.84C153.732 22.7 153.9 22.462 154.05 22.126L154.442 21.202L154.61 20.964L157.312 14.468H159.412L156.01 22.462C155.767 23.0687 155.487 23.5447 155.17 23.89C154.862 24.2353 154.516 24.478 154.134 24.618C153.76 24.758 153.345 24.828 152.888 24.828ZM154.176 22.294L150.816 14.468H153.07L155.674 20.768L154.176 22.294Z" fill="black"/>
<path d="M128.623 36.741L123.416 35.9843L121.089 31.2654C121.025 31.1362 120.92 31.0316 120.791 30.9681C120.467 30.8081 120.073 30.9414 119.911 31.2654L117.584 35.9843L112.377 36.741C112.233 36.7615 112.102 36.8292 112.002 36.9317C111.88 37.0566 111.813 37.2246 111.815 37.3988C111.818 37.573 111.889 37.7391 112.014 37.8608L115.781 41.5337L114.891 46.7201C114.87 46.8408 114.884 46.9649 114.93 47.0783C114.976 47.1917 115.053 47.29 115.152 47.362C115.251 47.4339 115.368 47.4767 115.49 47.4854C115.612 47.4941 115.734 47.4684 115.843 47.4112L120.5 44.9626L125.157 47.4112C125.285 47.4789 125.432 47.5015 125.574 47.4769C125.931 47.4153 126.17 47.077 126.109 46.7201L125.219 41.5337L128.986 37.8608C129.089 37.7603 129.156 37.629 129.177 37.4855C129.232 37.1266 128.982 36.7943 128.623 36.741V36.741Z" fill="#FCA13B"/>
<path d="M136.608 43.248V42.128L142.336 34.8H144.064L138.384 42.128L137.568 41.872H146.512V43.248H136.608ZM142.832 46V43.248L142.88 41.872V39.44H144.384V46H142.832ZM148.84 46.096C148.541 46.096 148.285 45.9947 148.072 45.792C147.858 45.5787 147.752 45.312 147.752 44.992C147.752 44.672 147.858 44.4107 148.072 44.208C148.285 44.0053 148.541 43.904 148.84 43.904C149.128 43.904 149.373 44.0053 149.576 44.208C149.789 44.4107 149.896 44.672 149.896 44.992C149.896 45.312 149.789 45.5787 149.576 45.792C149.373 45.9947 149.128 46.096 148.84 46.096ZM151.389 46V44.912L155.949 40.512C156.354 40.128 156.653 39.792 156.845 39.504C157.048 39.2053 157.181 38.9333 157.245 38.688C157.32 38.432 157.357 38.1867 157.357 37.952C157.357 37.376 157.154 36.9227 156.749 36.592C156.344 36.2613 155.752 36.096 154.973 36.096C154.376 36.096 153.837 36.1973 153.357 36.4C152.877 36.592 152.461 36.896 152.109 37.312L151.021 36.368C151.448 35.824 152.018 35.408 152.733 35.12C153.458 34.8213 154.253 34.672 155.117 34.672C155.896 34.672 156.573 34.8 157.149 35.056C157.725 35.3013 158.168 35.6587 158.477 36.128C158.797 36.5973 158.957 37.152 158.957 37.792C158.957 38.1547 158.909 38.512 158.813 38.864C158.717 39.216 158.536 39.5893 158.269 39.984C158.002 40.3787 157.618 40.8213 157.117 41.312L153.053 45.232L152.669 44.608H159.437V46H151.389Z" fill="black"/>
</svg>
