<svg width="60" height="60" viewBox="0 0 60 60" fill="none" xmlns="http://www.w3.org/2000/svg">
<rect width="60" height="60" rx="30" fill="#0A4A60"/>
<path d="M29.3744 13.219L29.0228 13.3987L26.5619 18.3518C25.2103 21.0706 24.0619 23.344 24.015 23.3909C23.9759 23.4377 21.5306 23.8206 18.5853 24.2424C12.6166 25.1018 12.6712 25.094 12.3666 25.7034C12.1478 26.1252 12.14 26.4221 12.3353 26.8362C12.4369 27.0549 13.6634 28.2893 16.39 30.9377C18.8587 33.3362 20.2962 34.7815 20.3041 34.8831C20.3119 34.969 19.9056 37.3909 19.4134 40.2659C18.9212 43.1409 18.515 45.6174 18.515 45.7581C18.515 46.1331 18.7806 46.594 19.1009 46.7971C19.3353 46.9456 19.4603 46.9612 19.8666 46.9377C20.3275 46.8987 20.6244 46.7581 25.1791 44.3518L29.9994 41.8127L34.8275 44.344C37.4759 45.7424 39.7806 46.9143 39.9447 46.9456C40.7259 47.1252 41.4837 46.5471 41.4837 45.7737C41.4837 45.6174 41.0775 43.1331 40.5853 40.2581C40.0931 37.3752 39.6869 34.9612 39.6869 34.8987C39.6869 34.8284 41.4603 33.0393 43.6322 30.9299C47.6556 27.0002 47.8119 26.8284 47.8119 26.2659C47.8119 26.1487 47.7337 25.8909 47.64 25.7034C47.3275 25.0862 47.39 25.1018 41.3666 24.2346C38.4056 23.8049 35.9681 23.4299 35.9525 23.3909C35.9369 23.3518 34.8119 21.0862 33.4525 18.3596L30.9759 13.3987L30.6244 13.219C30.4369 13.1252 30.1556 13.0471 29.9994 13.0471C29.8431 13.0471 29.5619 13.1252 29.3744 13.219Z" fill="white"/>
</svg>
