<svg width="60" height="60" viewBox="0 0 60 60" fill="none" xmlns="http://www.w3.org/2000/svg">
<rect width="60" height="60" rx="30" fill="#0A4A60"/>
<path d="M24.4766 12.3046C24.3438 12.3593 24.1797 12.4921 24.1172 12.5936C24.0469 12.6952 23.7422 13.5077 23.4297 14.414C22.8516 16.1015 22.1875 17.7343 21.6328 18.8436C20.8672 20.3671 19.7812 20.9296 17.6016 20.9374C17.0234 20.9374 16.6406 20.9686 16.6406 21.0155C16.6406 21.0546 16.7812 21.164 16.9453 21.2499C17.2734 21.414 17.3594 21.5077 18.3594 22.8124C19.1328 23.8202 20.0703 24.8593 20.1719 24.828C20.2109 24.8124 20.3047 24.6249 20.375 24.414C20.6641 23.5624 21.1641 22.9765 21.9141 22.5936C22.3281 22.3905 23.0469 22.2577 23.4688 22.3124L23.7969 22.3593L23.9375 21.3983C24.0938 20.2499 24.5078 18.2811 24.9062 16.7577L25.1875 15.6718L25.6875 16.7186C26.7578 18.9921 27.2969 20.5858 27.5469 22.2421C27.6172 22.7265 27.7109 23.1249 27.75 23.1249C27.7812 23.1249 28 23.0233 28.2266 22.8905C29.3359 22.2655 30.7344 22.2811 31.8672 22.9296C32.0469 23.039 32.2266 23.1249 32.2656 23.1249C32.2969 23.1249 32.3828 22.7108 32.4609 22.203C32.625 21.0936 32.9297 19.9765 33.3672 18.8905C33.7344 17.953 34.7734 15.6874 34.8125 15.7265C34.9531 15.8593 35.8594 20.0155 36.1094 21.6405L36.2109 22.3046L36.7969 22.3124C38.1016 22.3436 39.125 23.1093 39.5703 24.3749C39.6328 24.5702 39.7109 24.7733 39.7266 24.8358C39.7891 24.9921 39.9141 24.8671 40.9688 23.5546C42.0391 22.2186 42.7266 21.4686 43.1016 21.2421C43.2422 21.1561 43.3594 21.0468 43.3594 21.0077C43.3594 20.9686 42.9297 20.9374 42.4062 20.9374C40.7812 20.9374 39.7344 20.6015 39.0391 19.8515C38.4375 19.203 37.5625 17.289 36.5625 14.4061C36.2266 13.4374 35.8906 12.578 35.8125 12.4921C35.5859 12.2421 35.1562 12.1483 34.8359 12.289C34.6172 12.3749 34.4766 12.539 34.1797 13.0468C33.3438 14.4765 31.9766 15.953 31.1094 16.3827C30.7266 16.5702 30.5703 16.6015 30 16.6015C29.4297 16.6015 29.2734 16.5702 28.8906 16.3827C28.0234 15.953 26.6562 14.4765 25.8203 13.0468C25.5312 12.5624 25.3828 12.3749 25.1875 12.2968C24.8672 12.164 24.7969 12.164 24.4766 12.3046Z" fill="white"/>
<path d="M29.3528 12.3125C28.3059 12.6328 27.7434 14.0156 28.2434 15.0078C28.6028 15.7187 29.1653 16.0547 30.0012 16.0547C30.6497 16.0547 31.0481 15.8984 31.4153 15.4922C32.3841 14.4609 31.9387 12.7031 30.6184 12.3125C30.1184 12.1641 29.845 12.1641 29.3528 12.3125Z" fill="white"/>
<path d="M40.394 16.3978C39.8158 16.5853 39.3158 17.0228 39.1127 17.515C38.9408 17.9134 38.9565 18.7103 39.1361 19.1087C39.4721 19.8431 40.2611 20.2962 41.058 20.2103C41.7768 20.14 42.433 19.6712 42.6908 19.0462C42.8315 18.7181 42.8549 18.0619 42.7377 17.6478C42.6361 17.2806 42.1752 16.7494 41.7768 16.554C41.433 16.3744 40.7065 16.2962 40.394 16.3978Z" fill="white"/>
<path d="M18.3688 16.6086C17.6579 16.968 17.3063 17.6164 17.361 18.4758C17.486 20.4055 20.1735 20.9211 21.0173 19.1711C21.2282 18.7492 21.2516 17.9914 21.0719 17.5695C20.6423 16.5305 19.4079 16.093 18.3688 16.6086Z" fill="white"/>
<path d="M15.572 22.1873C15.0564 22.4998 15.0173 22.9763 15.447 23.742C16.3142 25.3123 18.0329 28.0935 18.947 29.4138C19.6423 30.4138 19.697 30.5467 20.2673 32.5623C20.9392 34.8982 21.8064 37.5701 22.5954 39.6873C23.4626 42.0076 23.5954 42.2888 23.9001 42.4138C24.2595 42.5701 24.7673 42.4763 24.9783 42.2263C25.2283 41.9373 25.2126 41.6717 24.7829 38.8513C24.5798 37.5154 24.4314 36.4295 24.4626 36.4529C24.4939 36.4685 25.1736 37.6717 25.9783 39.117C26.7829 40.5701 27.5251 41.8357 27.6345 41.9295C28.0095 42.281 28.7439 42.0935 28.9001 41.617C28.9783 41.3982 28.9158 41.0545 28.447 39.0623C27.4861 34.9763 27.2439 33.5545 27.2439 31.8748C27.2361 29.867 27.6423 28.6248 29.0095 26.4607C29.6736 25.406 29.8142 25.2342 30.0017 25.2342C30.1892 25.2342 30.3298 25.406 30.9939 26.4607C32.3611 28.6248 32.7673 29.867 32.7595 31.8748C32.7595 33.5545 32.5173 34.9998 31.5564 39.0545C31.0876 41.0545 31.0251 41.3904 31.1033 41.617C31.2595 42.0935 31.9939 42.281 32.3689 41.9295C32.4783 41.8357 33.2204 40.5701 34.0251 39.117C34.8298 37.6717 35.5095 36.4685 35.5408 36.4529C35.572 36.4295 35.4236 37.5154 35.2204 38.8513C34.7908 41.6717 34.7751 41.9373 35.0251 42.2263C35.2361 42.4763 35.7439 42.5701 36.1033 42.4138C36.4079 42.2888 36.5408 42.0076 37.4079 39.6873C38.197 37.5701 39.0642 34.8982 39.7361 32.5623C40.0173 31.5623 40.3142 30.617 40.4001 30.4529C40.4783 30.2967 41.0095 29.4685 41.572 28.617C42.5173 27.1795 43.8845 24.9607 44.5564 23.742C44.9939 22.9607 44.9314 22.4373 44.3767 22.1482C44.1033 22.0076 43.697 21.9998 43.4704 22.1326C43.3767 22.1873 42.9861 22.6482 42.5954 23.1638C41.0876 25.1717 39.5954 26.6404 38.5095 27.1873C37.7517 27.5623 37.1736 27.6873 36.3923 27.6404C35.4236 27.5857 35.0564 27.3513 33.4236 25.7888C31.3454 23.8045 30.6033 23.3826 29.572 23.5935C28.9158 23.7342 28.1579 24.281 26.6033 25.7732C24.947 27.3592 24.5798 27.5857 23.6111 27.6404C22.0017 27.7342 20.7283 27.0076 18.8767 24.9451C18.4236 24.4451 17.7439 23.6248 17.3689 23.117C16.9939 22.617 16.6033 22.1638 16.5017 22.117C16.2283 21.9842 15.8533 22.0154 15.572 22.1873Z" fill="white"/>
<path d="M22.5 23.1959C21.9922 23.3756 21.4843 23.8834 21.3437 24.3521C21.2109 24.8053 21.2343 25.4615 21.3984 25.8209C21.5781 26.2193 22.164 26.7428 22.5625 26.86C23.8515 27.2506 25.0859 26.3678 25.0937 25.0553C25.0937 24.485 24.9375 24.0553 24.5859 23.6881C24.039 23.1178 23.25 22.9303 22.5 23.1959Z" fill="white"/>
<path d="M36.1562 23.2347C35.7188 23.391 35.4922 23.5628 35.2344 23.9144C34.75 24.5863 34.75 25.5706 35.2344 26.2347C36.0391 27.3441 37.7812 27.2425 38.4922 26.0394C38.6797 25.7191 38.7109 25.5785 38.7109 25.0785C38.7109 24.4456 38.5938 24.1331 38.2109 23.7269C37.75 23.2269 36.7891 22.9925 36.1562 23.2347Z" fill="white"/>
<path d="M17.1987 33.703C16.7456 34.1874 16.6909 34.4296 16.9956 34.7264C17.3002 35.0389 17.5424 34.9842 18.0268 34.5077C18.3549 34.1796 18.4409 34.0311 18.4409 33.8436C18.4409 33.5155 18.1987 33.2811 17.8627 33.2811C17.6518 33.2811 17.5346 33.3592 17.1987 33.703Z" fill="white"/>
<path d="M41.7223 33.4374C41.441 33.7186 41.5192 34.0389 41.9801 34.5077C42.4645 34.9842 42.7067 35.0389 43.0114 34.7264C43.316 34.4296 43.2614 34.1874 42.8082 33.703C42.4723 33.3592 42.3551 33.2811 42.1442 33.2811C41.9801 33.2811 41.816 33.3436 41.7223 33.4374Z" fill="white"/>
<path d="M16.0391 35.4062C15.875 35.4844 15.4688 36.2656 15.4688 36.5C15.4688 36.7422 15.7813 37.0312 16.0469 37.0312C16.3828 37.0312 16.5234 36.9062 16.7188 36.4609C16.9375 35.9375 16.9219 35.6719 16.6719 35.4766C16.4453 35.2969 16.2969 35.2812 16.0391 35.4062Z" fill="white"/>
<path d="M43.3289 35.4766C43.0789 35.6719 43.0633 35.9375 43.282 36.4609C43.4773 36.9062 43.618 37.0312 43.9539 37.0312C44.1336 37.0312 44.2586 36.9688 44.368 36.8281C44.5789 36.5625 44.5711 36.4766 44.3289 35.9375C44.0555 35.3203 43.7195 35.1641 43.3289 35.4766Z" fill="white"/>
<path d="M15.3281 37.7344C15.1797 37.875 15.1562 37.9844 15.1562 38.4688C15.1562 39.1328 15.2656 39.2969 15.7188 39.2969C16.1328 39.2969 16.25 39.1172 16.25 38.4531C16.25 37.9922 16.2188 37.8594 16.0938 37.7344C15.8906 37.5312 15.5469 37.5312 15.3281 37.7344Z" fill="white"/>
<path d="M43.9062 37.7344C43.7812 37.8594 43.75 37.9922 43.75 38.4609C43.75 39.1328 43.8594 39.2969 44.3125 39.2969C44.7266 39.2969 44.8438 39.1172 44.8438 38.4688C44.8438 37.8828 44.8125 37.8047 44.5547 37.6641C44.3047 37.5391 44.0859 37.5547 43.9062 37.7344Z" fill="white"/>
<path d="M15.7899 39.9453C15.5009 40.0937 15.4306 40.3984 15.5946 40.8281C15.8134 41.3906 15.9774 41.5625 16.329 41.5625C16.8837 41.5625 17.0165 41.125 16.6884 40.4141C16.4306 39.875 16.1806 39.7422 15.7899 39.9453Z" fill="white"/>
<path d="M43.6484 39.9297C43.4688 40.0391 43.125 40.75 43.125 41.0156C43.125 41.3516 43.3281 41.5625 43.6641 41.5625C44.0156 41.5625 44.1406 41.4453 44.375 40.9062C44.5469 40.5078 44.5312 40.1641 44.3438 40.0078C44.1875 39.875 43.8047 39.8359 43.6484 39.9297Z" fill="white"/>
<path d="M16.9567 42.1866C16.6754 42.4679 16.7535 42.7882 17.2145 43.257C17.6989 43.7335 17.9801 43.796 18.2692 43.4913C18.5504 43.1945 18.4879 42.9366 18.0426 42.4523C17.7067 42.1085 17.5895 42.0304 17.3785 42.0304C17.2145 42.0304 17.0504 42.0929 16.9567 42.1866Z" fill="white"/>
<path d="M41.963 42.4523C41.5099 42.9445 41.4474 43.218 41.7443 43.4992C42.049 43.7883 42.3146 43.7258 42.7912 43.257C43.1193 42.9289 43.2052 42.7805 43.2052 42.593C43.2052 42.2648 42.963 42.0305 42.6271 42.0305C42.4162 42.0305 42.299 42.1086 41.963 42.4523Z" fill="white"/>
<path d="M19.1128 44.0781C18.9644 44.2891 18.9487 44.6094 19.0894 44.7812C19.2144 44.9531 20.0894 45.4688 20.2456 45.4688C20.48 45.4688 20.7847 45.1562 20.7847 44.9219C20.7847 44.5625 20.7144 44.4687 20.2378 44.1797C19.6987 43.8516 19.2925 43.8125 19.1128 44.0781Z" fill="white"/>
<path d="M39.8047 44.1484C39.3125 44.4531 39.2188 44.5781 39.2188 44.8906C39.2188 45.1562 39.5078 45.4688 39.7578 45.4688C39.9141 45.4688 40.7891 44.9531 40.9219 44.7812C41.0547 44.6094 41.0391 44.2891 40.8906 44.0781C40.7109 43.8203 40.2891 43.8516 39.8047 44.1484Z" fill="white"/>
<path d="M22.1505 45.4055C22.0645 45.4524 21.9708 45.5305 21.9395 45.5774C21.838 45.7258 21.8692 46.1555 21.9942 46.2805C22.1114 46.3977 22.8536 46.7024 23.2052 46.7649C23.502 46.8274 23.8302 46.5383 23.8302 46.218C23.8302 45.8508 23.6974 45.7258 23.0567 45.5071C22.4005 45.2883 22.3692 45.2805 22.1505 45.4055Z" fill="white"/>
<path d="M36.9144 45.5156C36.6176 45.6172 36.3207 45.7656 36.266 45.8438C36.1019 46.0625 36.1801 46.4844 36.4301 46.6641L36.641 46.8281L37.1801 46.6563C37.8832 46.4297 38.1254 46.2344 38.1254 45.9141C38.1254 45.6172 38.0707 45.5234 37.8363 45.3984C37.6097 45.2813 37.5551 45.2891 36.9144 45.5156Z" fill="white"/>
<path d="M25.5724 46.3279C25.2131 46.4764 25.1349 46.9373 25.4162 47.2186C25.549 47.3514 25.7599 47.4217 26.2443 47.4998C26.8537 47.5936 26.9006 47.5936 27.0959 47.4451C27.3615 47.2498 27.4084 46.8904 27.2052 46.6482C27.1037 46.5154 26.9162 46.4373 26.4787 46.3592C25.799 46.242 25.7912 46.242 25.5724 46.3279Z" fill="white"/>
<path d="M33.4853 46.3592C33.0869 46.4373 32.8994 46.5154 32.7978 46.6404C32.5947 46.8904 32.6416 47.2498 32.9072 47.4451C33.1025 47.5936 33.1494 47.5936 33.7588 47.4998C34.2431 47.4217 34.4541 47.3514 34.5869 47.2186C34.7978 46.9998 34.8213 46.7186 34.6338 46.492C34.4463 46.2732 34.1416 46.242 33.4853 46.3592Z" fill="white"/>
<path d="M29.1361 46.7891C28.9174 46.9688 28.8861 47.4375 29.0892 47.6406C29.2924 47.8359 30.7142 47.8359 30.9174 47.6406C31.1205 47.4375 31.0892 46.9688 30.8705 46.7891C30.6049 46.5781 29.4017 46.5781 29.1361 46.7891Z" fill="white"/>
</svg>
