<svg width="60" height="60" viewBox="0 0 60 60" fill="none" xmlns="http://www.w3.org/2000/svg">
<rect width="60" height="60" rx="30" fill="#0A4A60"/>
<path d="M28.6649 12.9922C28.2586 13.2578 28.1492 13.6641 28.2586 14.4375C28.3133 14.7812 28.4227 15.2812 28.5164 15.5547C28.743 16.2344 29.3914 17.5156 29.7899 18.0859L30.1258 18.5547L33.1102 18.5781L36.0946 18.5938L36.4461 18.1484C36.8992 17.5703 37.6024 16.1484 37.8133 15.3906C38.1727 14.0781 38.0946 13.2891 37.5633 12.9687C37.243 12.7734 36.4617 12.7578 35.118 12.9375C34.6024 13 33.7039 13.0547 33.1258 13.0547C32.5477 13.0547 31.6492 13 31.1336 12.9375C29.7196 12.75 28.993 12.7734 28.6649 12.9922Z" fill="white"/>
<path d="M34.0609 19.3995C34.0609 19.5713 34.2484 20.8213 34.303 21.0401C34.3655 21.2745 34.4437 21.3682 34.6468 21.4541C34.7952 21.5166 34.9749 21.6495 35.0452 21.7588C35.1468 21.9151 35.1546 21.9776 35.0609 22.1651C34.8265 22.6651 34.3655 22.6495 33.8187 22.1182C33.4046 21.7198 33.2015 21.1885 33.2015 20.5323C33.2015 20.3291 33.178 20.1573 33.1546 20.1573C33.0999 20.1573 32.6468 20.5635 32.1234 21.087C31.928 21.2745 31.7093 21.5791 31.6234 21.7745C31.4437 22.1807 31.1702 22.3838 30.8968 22.3135C30.2015 22.1416 30.6937 20.8213 31.7484 20.0088C32.4359 19.4776 32.3968 19.4541 30.8343 19.4541H29.4749L28.9359 19.837C26.514 21.5479 24.2093 24.7198 22.7562 28.3213C22.389 29.2432 21.8421 31.0166 21.9124 31.0791C21.9359 31.1026 22.2015 31.1885 22.5062 31.2666C23.264 31.4541 24.0609 31.8526 24.9124 32.4698C26.4593 33.5713 26.8655 33.6729 30.0609 33.6729H32.4202V33.4151C32.4202 33.1885 32.3812 33.1416 32.1312 33.0557C31.2249 32.7276 30.514 31.212 31.0374 30.7198C31.3812 30.3995 31.8343 30.5791 31.9124 31.0791C32.0452 31.8448 32.3734 32.1885 32.9671 32.1885C33.2874 32.1885 33.3968 32.1495 33.6312 31.9463C33.9671 31.6495 34.0999 31.2198 33.9827 30.7901C33.8655 30.3448 33.5374 30.1026 32.9905 30.0401C32.0609 29.9385 31.4124 29.5166 31.053 28.7901C30.8265 28.337 30.8343 27.3448 31.0687 26.9073C31.2796 26.5088 31.764 26.0635 32.139 25.9307C32.3655 25.8448 32.4202 25.7901 32.4202 25.6104C32.4202 25.1182 32.7796 24.7745 33.1546 24.9229C33.3968 25.0088 33.514 25.2276 33.514 25.5635C33.514 25.7979 33.5452 25.8448 33.7952 25.9307C34.6234 26.2276 35.3577 27.5166 35.0374 28.1182C34.7484 28.6885 34.139 28.4698 34.0218 27.7354C33.9827 27.4932 33.8812 27.3057 33.7093 27.1338C33.4827 26.9073 33.3968 26.876 33.0452 26.876C32.2874 26.876 31.8968 27.3057 31.9671 28.0401C32.0296 28.6651 32.303 28.8995 33.1234 29.0323C34.2562 29.212 34.889 29.7823 35.0765 30.7979C35.264 31.7588 34.5765 32.9541 33.7249 33.1651C33.5452 33.212 33.514 33.2666 33.514 33.4854V33.751H34.2796C35.6077 33.751 36.3968 34.0635 37.2718 34.9229C37.8265 35.4698 38.1468 36.0401 38.2874 36.7354C38.3343 36.962 38.389 37.1885 38.4046 37.2432C38.4202 37.2979 38.9124 37.1416 39.7796 36.8057C40.5218 36.5088 41.3577 36.1963 41.639 36.1104C42.2874 35.8916 43.2249 35.7666 43.639 35.8291C43.9593 35.876 43.9749 35.8682 44.1234 35.5791C44.5374 34.7588 44.6077 33.2588 44.303 31.7198C43.4515 27.376 40.389 22.2823 37.1859 19.876L36.5218 19.376H35.2952C34.6155 19.376 34.0609 19.3838 34.0609 19.3995Z" fill="white"/>
<path d="M12.9689 30.2031C12.4767 30.625 12.5002 30.2109 12.5002 37.4609C12.5002 44.75 12.4767 44.4375 12.9924 44.7578C13.2658 44.9219 13.3127 44.9297 15.7346 44.9062L18.2033 44.8828L18.4924 44.5859L18.7892 44.2969L18.8127 37.5391C18.8361 30.0625 18.8596 30.4688 18.3361 30.1562C18.1017 30.0078 17.9299 30 15.6486 30H13.2189L12.9689 30.2031ZM15.8908 40.9453C16.1408 41.0625 16.2814 41.4688 16.2346 41.9609C16.1877 42.4141 16.0002 42.6562 15.6877 42.6562C15.2971 42.6562 15.1564 42.4219 15.1564 41.7656C15.1564 41.2266 15.1721 41.1719 15.3596 41.0234C15.6017 40.8359 15.633 40.8281 15.8908 40.9453Z" fill="white"/>
<path d="M19.7656 37.6805V43.1883L22.5625 44.7508C25.9453 46.6415 25.9922 46.6649 26.8516 46.9305C27.4766 47.118 27.6562 47.1415 28.7891 47.1415C29.8438 47.1493 30.1328 47.118 30.625 46.9774C31.2656 46.7899 46.6094 40.5399 46.9141 40.3446C47.3438 40.0633 47.5625 39.4383 47.4219 38.8915C47.2266 38.1727 45.9219 37.2821 44.6328 37.0008C43.8203 36.8212 42.7969 36.8368 42.1406 37.0399C41.5391 37.2274 38.8125 38.2821 38.4453 38.4774C38.2812 38.5555 38.2031 38.6571 38.2031 38.7743C38.2031 39.1024 37.8125 39.7821 37.3594 40.2352C36.8281 40.7587 36.1328 41.1415 35.3984 41.2977C34.7266 41.4383 28.8672 41.454 28.5625 41.3212C28.4609 41.2665 28.3281 41.1258 28.2734 41.0008C28.1953 40.8055 28.2031 40.743 28.3359 40.5633L28.4922 40.3524L31.9219 40.3133C35.6875 40.2665 35.6328 40.2743 36.375 39.7665C36.7812 39.4774 37.125 39.0399 37.3125 38.5555C37.5156 38.0165 37.4375 36.8837 37.1562 36.3446C36.875 35.7977 36.4141 35.3446 35.8672 35.0868L35.4297 34.8837L31.3672 34.8368C27.9375 34.8055 27.2344 34.7743 26.875 34.6649C25.7891 34.3524 25.4062 34.1571 24.4922 33.4696C23.8359 32.9774 23.0156 32.5633 22.3828 32.3915C22.125 32.3212 21.4297 32.243 20.8438 32.2118L19.7656 32.1649V37.6805Z" fill="white"/>
</svg>
